<?xml version="1.0" standalone="no"?>
<!DOCTYPE svg PUBLIC "-//W3C//DTD SVG 1.1//EN" "http://www.w3.org/Graphics/SVG/1.1/DTD/svg11.dtd" >
<svg xmlns="http://www.w3.org/2000/svg">
<metadata>Generated by IcoMoon</metadata>
<defs>
<font id="icomoon" horiz-adv-x="1024">
<font-face units-per-em="1024" ascent="960" descent="-64" />
<missing-glyph horiz-adv-x="1024" />
<glyph unicode="&#x20;" horiz-adv-x="512" d="" />
<glyph unicode="&#xe87a;" glyph-name="arrow_right" d="M1015.86 467.57l-332.093 332.093c-10.807 10.807-28.329 10.807-39.137 0s-10.808-28.329 0-39.139l284.849-284.847h-901.79c-15.284 0-27.674-12.39-27.674-27.674s12.391-27.674 27.674-27.674h901.79l-284.847-284.85c-10.808-10.807-10.808-28.329 0-39.137 5.403-5.403 12.485-8.106 19.568-8.106s14.164 2.701 19.568 8.107l332.093 332.093c10.808 10.807 10.808 28.328 0 39.135z" />
<glyph unicode="&#xe900;" glyph-name="keyboard_arrow_down" d="M120.054 763.978l391.962-391.962 391.962 391.962 119.988-119.988-511.951-511.951-511.951 511.951z" />
<glyph unicode="&#xe901;" glyph-name="search" d="M381.607 314.858q109.806 0 186.669 76.864t76.864 186.669-76.864 186.669-186.669 76.864-186.669-76.864-76.864-186.669 76.864-186.669 186.669-76.864zM732.985 314.858l290.985-290.985-87.844-87.844-290.985 290.985v46.667l-16.471 16.471q-104.315-90.59-247.062-90.59-159.218 0-270.396 109.806t-111.178 269.023 111.178 270.396 270.396 111.178 269.023-111.178 109.806-270.396q0-57.648-27.451-130.394t-63.138-116.668l16.471-16.471h46.667z" />
<glyph unicode="&#xe902;" glyph-name="hexagonal_start" d="M512.003-64l-443.356 256.005v511.995l443.356 256 443.362-256v-511.995zM132.68 228.953l379.323-219.021 379.328 219.021v438.095l-379.328 219.015-379.323-219.015zM704.754 475.246l-271.726 152.848c-2.395 1.372-5.265 2.181-8.324 2.181-9.378 0-16.98-7.602-16.98-16.98 0-0.003 0-0.006 0-0.009v0-305.695c0-0.005 0-0.010 0-0.016 0-6.222 3.348-11.661 8.342-14.615l0.079-0.043c2.449-1.441 5.392-2.298 8.534-2.311h0.004c0.007 0 0.015 0 0.023 0 3.051 0 5.913 0.808 8.384 2.221l-0.083-0.044 271.726 152.848c5.206 2.97 8.66 8.486 8.66 14.808s-3.453 11.838-8.576 14.764l-0.083 0.044z" />
<glyph unicode="&#xe903;" glyph-name="accounting_system_integration" d="M481.74 377.855v-339.2c0-19.2 0-19.2-18.752-19.2-23.488 0-46.912 0.64-70.4 0-11.84-0.448-15.168 3.456-15.168 15.296q0.576 291.072 0 582.016c0 16.128 0 16.32-15.872 16-32.768-0.512-65.856 0.96-98.368-2.496-78.026-10.23-139.89-68.761-155.006-144.184l-0.194-1.16c-2.353-11.060-3.701-23.768-3.701-36.79 0-92.202 67.559-168.625 155.875-182.467l1.042-0.135c9.707-1.179 20.946-1.852 32.342-1.852 4.201 0 8.381 0.091 12.538 0.272l-0.592-0.021c8.32 0 11.712-3.264 11.648-11.712 0-27.136 0-54.272 0-81.408 0-7.040-1.6-11.072-10.24-11.456-5.31-0.348-11.512-0.546-17.761-0.546-159.588 0-288.96 129.372-288.96 288.96 0 144.536 106.118 264.286 244.692 285.59l1.613 0.204c16.091 2.34 34.866 3.798 53.935 4.029l0.273 0.003c52.992 0.448 105.984 0 159.040 0 22.272 0 22.272 0 22.272-21.76zM707.212 635.263c0 15.36 0 31.36 0 47.296 0 14.784 0 29.568 0 44.352 0 7.936 3.264 10.688 11.072 10.88 4.822 0.287 10.46 0.45 16.136 0.45 159.836 0 289.408-129.572 289.408-289.408 0-138.508-97.301-254.29-227.278-282.723l-1.914-0.351c-16.064-3.608-34.559-5.745-53.528-5.887l-0.104-0.001c-61.632-0.704-123.328 0-184.896-0.512-10.048 0-13.376 2.56-13.376 12.8q0.384 345.216 0 690.496c0 10.88 3.008 14.272 13.888 13.888 25.024-0.64 50.112-0.704 75.264 0 11.392 0.32 14.336-3.456 14.336-14.656q-0.512-290.432 0-580.8c0-17.472 0-17.536 17.344-17.472 28.352 0 56.704-0.576 85.056 0.768 96.109 6.848 171.483 86.498 171.483 183.753 0 88.687-62.679 162.734-146.156 180.26l-1.199 0.211c-20.544 4.16-41.6 4.352-65.536 6.656z" />
<glyph unicode="&#xe904;" glyph-name="ach_express" d="M10.576 63.064c-5.824 0-10.559-15.103-10.559-33.982s4.736-33.79 10.559-33.79h1002.767c5.888 0 10.623 15.103 10.623 33.79s-4.736 33.982-10.623 33.982h-22.655v423.34h33.278v37.438l-511.975 376.878-511.975-376.878v-37.438h36.542v-423.212zM671.984 486.403v-423.212h-109.691v423.212zM460.283 63.064h-109.819v423.34h109.819zM888.678 63.064h-114.298v423.34h114.49zM138.57 486.403h109.883v-423.212h-109.883z" />
<glyph unicode="&#xe905;" glyph-name="adjustable_rate_mortgages" d="M601.608 415.228v20.67c0 17.83-14.455 32.285-32.285 32.285s-32.285-14.455-32.285-32.285v0-20.67c0-17.83 14.455-32.285 32.285-32.285s32.285 14.455 32.285 32.285v0zM719.869 303.175c-16.667-0.036-30.169-13.538-30.205-30.202v-19.201c0-16.681 13.524-30.205 30.205-30.205s30.205 13.524 30.205 30.205v19.198c0 16.681-13.524 30.205-30.205 30.205v0zM1020.704 486.261l-508.303 298.467c-1.23 0.737-2.691 1.22-4.254 1.342l-0.034 0.002h-0.768c-0.226 0.016-0.489 0.025-0.755 0.025-2.077 0-4.023-0.556-5.699-1.526l0.055 0.029-497.552-298.339c-1.619-0.815-2.825-2.251-3.317-3.987l-0.011-0.045c-0.023-0.186-0.036-0.4-0.036-0.618 0-1.657 0.758-3.136 1.947-4.11l0.009-0.007 54.395-79.224c1.906-1.551 4.364-2.49 7.040-2.49 2.127 0 4.115 0.593 5.808 1.622l-0.050-0.028 76.089 45.308v-326.368c0-3.648 3.968-6.399 8.895-6.399h707.451c4.864 0 8.831 2.88 8.831 6.399v325.152l73.785-43.9c1.601-0.923 3.52-1.469 5.566-1.472h0.001c0.078-0.002 0.17-0.003 0.263-0.003 2.552 0 4.895 0.894 6.732 2.387l-0.020-0.016 65.146 79.224c1.259 0.956 2.064 2.454 2.064 4.14 0 0.142-0.006 0.283-0.017 0.423l0.001-0.018c-0.488 1.771-1.671 3.204-3.229 4.015l-0.035 0.017zM278.376 292.424c-3.075 0-5.567 2.493-5.567 5.567v0 104.31h-41.34c-2.287 0.004-4.242 1.418-5.043 3.419l-0.013 0.037c-0.245 0.566-0.388 1.224-0.388 1.916 0 0.069 0.001 0.137 0.004 0.205v-0.010c0 0.011 0 0.023 0 0.036 0 1.53 0.61 2.918 1.601 3.933l-0.001-0.001 72.633 70.393c0.994 0.984 2.362 1.592 3.872 1.592s2.878-0.608 3.872-1.593v0l72.569-70.393c1.034-1.022 1.675-2.44 1.675-4.008 0-0.746-0.145-1.458-0.409-2.11l0.014 0.038c-0.877-2.014-2.83-3.407-5.114-3.456h-41.218v-103.99c0-3.075-2.493-5.567-5.567-5.567v0zM477.652 244.813l-72.569-70.393c-0.994-0.984-2.362-1.592-3.872-1.592s-2.878 0.608-3.872 1.593v0l-72.569 70.393c-1.026 0.971-1.665 2.342-1.665 3.862 0 0.037 0 0.074 0.001 0.111v-0.006c0 0 0 0 0 0 0 3.053 2.457 5.53 5.5 5.567h41.151v104.31c0 0.019 0 0.042 0 0.064 0 3.040 2.464 5.503 5.503 5.503 0.023 0 0.045 0 0.068 0h51.768c0 0 0 0 0 0 3.040 0 5.503-2.464 5.503-5.503 0-0.023 0-0.045 0-0.067v0.003-103.99h41.020c2.309-0.043 4.275-1.469 5.106-3.483l0.014-0.037c0.257-0.618 0.406-1.335 0.406-2.088 0-1.533-0.62-2.922-1.622-3.929v0zM514.897 411.837v27.133c1.039 29.507 25.21 53.033 54.875 53.033s53.836-23.526 54.872-52.938l0.003-0.095v-26.813c0.020-0.559 0.032-1.215 0.032-1.874 0-30.324-24.583-54.907-54.907-54.907s-54.907 24.583-54.907 54.907c0 0.659 0.012 1.316 0.035 1.969l-0.003-0.095zM568.14 216.847c-0.014 0-0.031 0-0.047 0-1.291 0-2.492 0.382-3.497 1.039l0.024-0.015c-1.834 1.147-3.036 3.155-3.036 5.444 0 1.309 0.393 2.525 1.067 3.539l-0.015-0.024 147.186 233.961c1.171 1.816 3.183 3.001 5.471 3.001 3.584 0 6.488-2.905 6.488-6.488 0-1.295-0.379-2.501-1.033-3.514l0.015 0.026-147.186-233.961c-1.174-1.641-3.074-2.697-5.219-2.697-0.122 0-0.244 0.003-0.364 0.010l0.017-0.001zM774.264 249.548c0.020-0.559 0.032-1.215 0.032-1.874 0-30.324-24.583-54.907-54.907-54.907s-54.907 24.583-54.907 54.907c0 0.659 0.012 1.316 0.035 1.969l-0.003-0.095v26.813c1.039 29.507 25.21 53.033 54.875 53.033s53.836-23.526 54.872-52.938l0.003-0.095zM948.711 431.611l-80.376 48.251c-0.665 0.523-1.424 0.974-2.239 1.32l-0.065 0.024-354.014 210.412c-1.621 0.925-3.563 1.471-5.631 1.471s-4.011-0.545-5.688-1.5l0.057 0.030-436.182-259.687-21.886 34.557 467.155 280.037 467.155-278.245z" />
<glyph unicode="&#xe906;" glyph-name="automotive" d="M1021.686 599.278l-7.232 17.345c-4.487 10.611-14.809 17.921-26.838 17.921-0.015 0-0.030 0-0.045 0h-116.036l-35.202 108.037c-7.854 23.746-29.851 40.578-55.78 40.578-0.011 0-0.022 0-0.033 0h-537.432c-0.009 0-0.020 0-0.031 0-25.928 0-47.925-16.831-55.661-40.164l-0.119-0.414-35.202-108.357h-115.846c-0.013 0-0.028 0-0.043 0-12.030 0-22.352-7.31-26.767-17.731l-0.072-0.19-7.232-17.345c-1.341-3.227-2.119-6.975-2.119-10.906 0-12.647 8.060-23.409 19.325-27.432l0.203-0.063 76.804-26.433-60.419-53.571c-13.154-11.75-21.405-28.748-21.441-47.676v-290.58c0 0 0 0 0 0 0-16.238 13.145-29.405 29.374-29.441h116.617c16.233 0.036 29.377 13.204 29.377 29.441 0 0 0 0 0 0v0 58.435h644.127v-58.435c0 0 0 0 0 0 0-16.238 13.145-29.405 29.374-29.441h116.937c16.233 0.036 29.377 13.204 29.377 29.441 0 0 0 0 0 0v0 290.574c-0.036 18.934-8.287 35.933-21.379 47.627l-0.062 0.055-60.291 53.571 76.804 26.433c11.323 4.163 19.253 14.855 19.253 27.398 0 4.089-0.843 7.981-2.364 11.513l0.072-0.189zM246.736 355.106h-135.111c-17.073 0-30.914 13.841-30.914 30.914v0 29.185c0 0.017 0 0.037 0 0.057 0 17.073 13.841 30.914 30.914 30.914 2.313 0 4.566-0.254 6.734-0.736l-0.206 0.038 135.111-29.313c14.175-3.006 24.657-15.416 24.657-30.273 0-17.073-13.841-30.914-30.914-30.914-0.051 0-0.101 0-0.152 0h0.008zM191.053 565.357l39.874 123.014c7.154 21.517 27.064 36.776 50.551 36.866h460.833c23.575-0.003 43.579-15.288 50.645-36.489l0.109-0.377 39.874-123.014h-641.887zM943.090 415.205v-29.185c0-17.073-13.841-30.914-30.914-30.914v0h-135.111c-0.043 0-0.093 0-0.144 0-17.073 0-30.914 13.841-30.914 30.914 0 14.858 10.483 27.268 24.455 30.237l0.202 0.036 135.111 29.185c1.924 0.426 4.133 0.67 6.4 0.67 17.073 0 30.914-13.841 30.914-30.914 0-0.010 0-0.021 0-0.031v0.002z" />
<glyph unicode="&#xe907;" glyph-name="collateralized_mortgage_obligations" d="M165.961 425.884c-6.4 40.062 1.344 28.607-33.278 63.997l153.593 208.054c16.639-20.607 38.846-18.431 60.541-18.175 12.799 0 26.047 0 39.102 0 2.56 0 5.12 0 9.216-0.512-1.217-2.060-2.485-3.838-3.888-5.498l0.048 0.058c-11.903-11.455-24.063-22.719-35.71-34.43-9.609-8.321-15.651-20.538-15.651-34.166 0-16.82 9.205-31.491 22.852-39.25l0.223-0.117c18.424-9.849 40.299-15.633 63.526-15.633 5.941 0 11.793 0.378 17.535 1.113l-0.681-0.071c23.449 3.232 44.585 10.838 63.365 21.994l-0.776-0.427c7.854 5.15 17.476 8.215 27.815 8.215 13.688 0 26.122-5.372 35.307-14.122l-0.021 0.020c53.117-42.878 106.619-85.308 159.992-127.994 20.087-16.856 45.212-28.337 72.816-31.922l0.716-0.076c4.736-0.576 6.4-2.816 7.168-7.104 0.561-2.585 0.882-5.555 0.882-8.6 0-14.961-7.756-28.112-19.465-35.649l-0.168-0.101c-6.128-3.944-13.609-6.288-21.639-6.288-9.687 0-18.577 3.411-25.535 9.097l0.072-0.057q-61.117 44.798-122.17 90.428c-2.624 1.92-5.248 3.776-8 5.568-2.221 2.345-5.358 3.804-8.834 3.804-6.716 0-12.159-5.444-12.159-12.159 0-4.709 2.676-8.792 6.59-10.811l0.068-0.032c20.735-15.679 41.726-31.102 62.589-46.59 18.559-13.695 37.374-27.007 55.485-41.15 11.781-8.189 19.398-21.655 19.398-36.901 0-16.236-8.637-30.455-21.567-38.311l-0.199-0.112c-6.383-4.27-14.233-6.814-22.679-6.814-8.806 0-16.965 2.766-23.658 7.477l0.131-0.087c-26.239 17.791-51.837 36.478-77.692 54.781-12.799 9.088-25.599 18.239-38.398 27.263-2.237 1.959-5.186 3.155-8.415 3.155-3.053 0-5.857-1.069-8.057-2.853l0.024 0.019c-6.72-5.504-5.952-13.823 2.24-19.903 13.951-10.304 28.159-20.223 42.302-30.271 20.991-14.847 42.11-29.567 63.037-44.798 10.964-6.708 18.17-18.616 18.17-32.207 0-20.783-16.847-37.63-37.63-37.63-9.774 0-18.677 3.726-25.367 9.836l0.029-0.026q-46.398 35.71-92.924 71.229c-3.648 2.816-7.232 5.696-11.007 8.32-7.552 5.184-14.591 4.864-18.815-0.768-1.623-2.071-2.603-4.713-2.603-7.585 0-4.656 2.576-8.71 6.38-10.814l0.063-0.032c18.431-14.655 37.118-29.055 55.613-43.646 12.799-10.048 25.983-19.647 38.398-30.463 9.066-7.52 14.795-18.787 14.795-31.392 0-18.33-12.117-33.83-28.779-38.928l-0.288-0.076c-3.656-1.273-7.871-2.009-12.257-2.009-7.634 0-14.747 2.228-20.726 6.069l0.153-0.092c-5.568 3.2-6.4 6.4-3.456 12.351 4.858 8.758 7.717 19.205 7.717 30.32 0 23.998-13.328 44.882-32.985 55.654l-0.33 0.166c-8.703 4.883-19.099 7.759-30.168 7.759-4.593 0-9.070-0.495-13.379-1.435l0.413 0.076c0.039 0.849 0.061 1.844 0.061 2.844 0 36.334-29.455 65.789-65.789 65.789-3.137 0-6.222-0.219-9.241-0.644l0.348 0.040c0.475 3.073 0.747 6.618 0.747 10.226 0 20.361-8.644 38.703-22.462 51.557l-0.043 0.040c-12.406 11.818-29.238 19.090-47.768 19.090-5.482 0-10.815-0.637-15.931-1.84l0.47 0.093c0.181 1.933 0.284 4.181 0.284 6.452 0 30.317-18.379 56.341-44.603 67.539l-0.479 0.182c-8.538 3.847-18.509 6.089-29.004 6.089-22.322 0-42.275-10.141-55.505-26.066l-0.095-0.118zM821.929 429.66c-29.816 0.236-57.107 10.847-78.487 28.398l0.219-0.175q-77.436 61.885-154.873 123.962c-10.618 9.344-23.279 16.653-37.199 21.165l-0.751 0.21c-5.603 1.399-12.034 2.202-18.653 2.202-16.242 0-31.356-4.833-43.982-13.139l0.302 0.187c-17.586-10.777-38.877-17.16-61.658-17.16-12.952 0-25.423 2.063-37.101 5.879l0.844-0.239c-5.303 1.592-9.8 3.375-14.106 5.487l0.539-0.239c-7.23 3.11-12.2 10.172-12.2 18.394 0 5.772 2.449 10.971 6.365 14.616l0.012 0.011c29.119 28.351 58.173 56.829 88.316 84.156 12.007 10.626 27.89 17.114 45.288 17.114 4.352 0 8.609-0.406 12.734-1.182l-0.425 0.066q71.293-10.112 142.521-20.479c10.176-1.472 20.351-2.944 30.527-4.864 4.472-0.771 9.623-1.211 14.876-1.211 19.596 0 37.76 6.129 52.681 16.575l-0.296-0.197c9.216 5.696 9.344 5.312 13.503-4.864l104.827-258.1c3.776-9.408 3.584-9.92-6.4-11.071zM1023.967 482.201c-0.768-8.384-6.976-10.176-12.287-12.799-26.175-11.711-52.477-23.231-78.652-34.878-22.399-10.048-22.399-10.112-31.55 12.351q-59.325 145.465-118.586 290.994c-4.032 9.92-2.56 14.079 7.488 18.623q45.822 20.607 91.9 40.958c8.448 3.712 13.439 1.472 17.151-7.744q32.638-80.060 65.085-159.992 28.671-70.781 57.277-141.497c0.896-2.368 1.664-4.544 2.176-6.016zM0.017 544.598c2.56 4.352 4.224 8 6.4 11.135q51.709 70.077 103.355 140.089l69.949 94.843c9.856 13.375 13.119 13.631 26.047 3.456 21.503-16.895 43.198-33.598 64.637-50.558 10.751-8.448 11.327-12.799 3.328-23.743l-175.288-235.317c-8.256-11.071-11.775-11.647-22.463-3.264q-33.854 26.495-67.581 53.373c-3.028 2.999-5.784 6.262-8.233 9.756l-0.151 0.228zM261.38 353.632c-17.663-24.319-36.158-48.062-55.037-71.485-8.636-11.188-22.050-18.325-37.132-18.325-25.837 0-46.782 20.945-46.782 46.782 0 3.132 0.308 6.192 0.895 9.152l-0.049-0.298c1.885 8.928 5.567 16.783 10.665 23.504l-0.106-0.145c16.383 22.207 33.662 43.838 50.686 65.597 7.929 12.051 21.393 19.898 36.689 19.898 2.753 0 5.447-0.254 8.060-0.74l-0.27 0.042c18.622-3.182 33.503-16.419 39.007-33.824l0.095-0.35c0.877-3.578 1.38-7.685 1.38-11.909 0-10.35-3.019-19.996-8.224-28.105l0.125 0.207zM256.324 192.935c-15.737 0.463-29.288 9.389-36.302 22.365l-0.112 0.226c-3.896 5.977-6.214 13.292-6.214 21.149 0 8.538 2.737 16.437 7.381 22.868l-0.079-0.115c18.623 25.599 37.886 50.878 58.237 75.068 8.052 8.755 19.562 14.22 32.348 14.22 24.247 0 43.902-19.655 43.902-43.902 0-9.754-3.181-18.765-8.562-26.053l0.085 0.12c-17.983-23.743-36.926-46.846-55.741-69.885-8.182-9.848-20.431-16.070-34.134-16.070-0.284 0-0.568 0.003-0.851 0.008l0.043-0.001zM348.096 141.162c-13.922 0.905-25.708 9.229-31.515 21.025l-0.099 0.222c-3.084 5.086-4.909 11.232-4.909 17.805 0 8.089 2.763 15.531 7.398 21.436l-0.057-0.075c14.335 19.199 29.247 37.758 44.798 55.677 6.767 7.302 16.407 11.857 27.113 11.857 8.275 0 15.913-2.722 22.071-7.319l-0.097 0.069c9.677-6.658 15.939-17.671 15.939-30.147 0-7.055-2.002-13.64-5.47-19.222l0.090 0.155c-13.823-20.991-29.311-40.894-44.798-60.733-6.415-6.834-15.506-11.091-25.592-11.091-1.718 0-3.408 0.124-5.060 0.362l0.189-0.022zM473.146 201.895c19.213-2.298 33.964-18.497 33.964-38.141 0-7.174-1.967-13.887-5.391-19.632l0.097 0.176c-7.326-13.373-14.721-24.754-22.861-35.542l0.526 0.728c-7.52-9.045-18.774-14.76-31.364-14.76-22.479 0-40.702 18.223-40.702 40.702 0 8.547 2.634 16.478 7.135 23.026l-0.090-0.138c7.872 10.623 16.127 20.991 24.575 31.294 7.109 7.8 17.31 12.674 28.65 12.674 1.926 0 3.82-0.141 5.671-0.412l-0.21 0.025z" />
<glyph unicode="&#xe908;" glyph-name="commercial_loans" d="M667.527 823.5h97.98v-132.923h-97.98zM667.527 583.125h97.98v-132.923h-97.98zM667.527 348.126h97.98v-132.987h-97.98zM589.577 215.139h-98.045v132.987h98.045zM589.577 450.202h-98.045v132.923h98.045zM589.577 690.577h-98.045v132.923h98.045zM650.888-54.035v177.657h131.259v-177.657h217.208c13.593 0.036 24.602 11.046 24.639 24.636v955.104c-0.036 13.593-11.046 24.602-24.636 24.639h-565.742c-13.581-0.036-24.575-11.054-24.575-24.639 0 0 0 0 0 0v0-955.1c0 0 0 0 0 0 0-13.586 10.995-24.602 24.572-24.639h0.004zM941.436 215.139h-97.98v132.987h97.98zM941.436 450.202h-97.98v132.923h97.98zM941.436 690.577h-97.98v132.923h97.98zM367.059 571.541h-348.531c-10.222-0.036-18.496-8.331-18.496-18.559 0 0 0 0 0 0v0-588.777c0-0.019 0-0.041 0-0.064 0-10.214 8.28-18.496 18.496-18.496 0 0 0 0 0 0h348.531c10.25 0 18.559 8.31 18.559 18.559v0 588.777c-0.036 10.235-8.324 18.523-18.555 18.559h-0.004zM144.027 57.769h-59.006v82.237h59.006zM144.027 224.803h-59.006v82.237h59.006zM144.027 400.348h-59.006v82.301h59.006zM300.821 57.769h-59.197v82.237h59.197zM300.821 224.803h-59.197v82.237h59.197zM300.821 400.348h-59.197v82.301h59.197z" />
<glyph unicode="&#xe909;" glyph-name="construction_loans" d="M993.774 422.435c-161.363-138.902-372.37-224.156-603.244-226.182l-0.429-0.003c-76.418 3.453-180.398 36.578-180.398 63.948 0 333.427 172.66 538.637 316.352 599.26 18.018 14.535 41.195 23.333 66.425 23.333 30.717 0 58.389-13.038 77.782-33.884l0.060-0.065c-262.188-101.678-289.174-489.972-291.86-607.509 0.143-9.638 7.99-17.397 17.648-17.397 0.541 0 1.076 0.024 1.605 0.072l-0.068-0.005c294.994-14.069 575.983 217.424 575.983 223.435-0.129 115.9-45.493 221.179-119.385 299.155l0.185-0.197c-4.491 4.873-10.905 7.916-18.029 7.916-3.418 0-6.673-0.7-9.627-1.964l0.16 0.061c-137.041-62.094-245.817-340.525-245.817-445.848 0-7.063-5.726-12.79-12.79-12.79v0c-0.181-0.011-0.392-0.017-0.605-0.017-5.933 0-10.743 4.81-10.743 10.743 0 0.276 0.010 0.55 0.031 0.82l-0.002-0.036c0 111.718 88.121 392.067 239.614 473.218 3.564 1.781 5.968 5.402 5.968 9.584 0 3.354-1.547 6.348-3.966 8.305l-0.020 0.016c-28.14 22.182-60.242 41.354-94.683 56.113l-2.774 1.057c-32.933 42.078-77.825 69.959-167.864 33.637-243.004 0-391.428-227.336-417.263-439.837-3.603-33.986-5.658-73.419-5.658-113.331 0-16.143 0.336-32.207 1.002-48.186l-0.076 2.286c-32.805-14.9-111.27-72.773-111.27-138.576s115.683-157.569 411.827-157.569c109.185 9.459 208.051 46.964 291.362 105.195l-1.931-1.279c67.529 50.199 321.916 116.642 321.916 241.341 0.496 3.784 0.779 8.16 0.779 12.603 0 28.367-11.544 54.038-30.191 72.571l-0.005 0.005z" />
<glyph unicode="&#xe90a;" glyph-name="consumer_credit_reporting" d="M426.507 265.929c-5.571-7.523-8.918-16.986-8.918-27.231 0-25.425 20.611-46.037 46.037-46.037 15.181 0 28.645 7.348 37.031 18.68l0.088 0.125 307.19 480.496-8.896 6.784zM468.681 225.802c-9.894 0.851-17.602 9.092-17.602 19.132 0 10.604 8.596 19.199 19.199 19.199s19.199-8.596 19.199-19.199c0-0.54-0.022-1.074-0.066-1.603l0.005 0.069c-0.819-9.923-9.075-17.666-19.138-17.666-0.562 0-1.119 0.024-1.669 0.072l0.072-0.005zM136.212 359.43h60.67v-20.223c-15.289-40.603-25.697-87.603-29.095-136.535l-0.088-1.573h-22.527c3.921 49.843 13.904 96.039 29.269 139.697l-1.174-3.83h-37.055zM216.402 359.43h60.734v-20.223c-15.306-40.599-25.736-87.596-29.158-136.526l-0.089-1.582h-22.527c3.981 49.773 13.958 95.875 29.274 139.462l-1.179-3.851h-37.055zM297.551 359.43h60.862v-20.223c-15.324-40.594-25.775-87.588-29.221-136.516l-0.090-1.592h-22.655c3.981 49.864 13.982 96.054 29.339 139.719l-1.18-3.852h-37.055zM177.363 578.111c-104.516-90.476-171.832-221.501-177.31-368.338l-0.028-0.93h39.679c9.175 130.113 80.623 241.767 184.438 306.225l1.668 0.965zM472.009 701.627c-106.048-8.38-201.484-48.017-278.65-109.587l1.027 0.791 51.198-65.15c51.231 27.81 112.175 44.159 176.938 44.159 0.118 0 0.237 0 0.355 0h-0.019c17.591-0.154 34.729-1.475 51.514-3.889l-2.044 0.241zM769.984 633.021c-73.814 44.198-162.842 70.334-257.974 70.334-0.001 0-0.002 0-0.003 0h0.001c-5.888 0-11.712-0.576-17.535-0.768v-137.788c66.039-13.048 123.92-41.656 171.704-81.875l-0.574 0.47zM789.311 621.565l-107.197-153.211c70.104-65.78 115.955-156.683 123.126-258.267l0.070-1.245h218.681c-6.317 172.939-97.393 323.324-232.706 411.516l-1.974 1.207z" />
<glyph unicode="&#xe90b;" glyph-name="conventional_lending" d="M508.060 176.077c-1.4-1.458-3.366-2.364-5.542-2.364-4.241 0-7.679 3.438-7.679 7.679 0 2.464 1.161 4.657 2.965 6.062l0.017 0.013c36.283 32.572 100.466 17.598 161.707 3.328 22.599-6.303 49.554-11.355 77.173-14.161l2.113-0.173c2.261-0.266 4.879-0.417 7.534-0.417 16.158 0 31.007 5.608 42.706 14.984l-0.135-0.105c3.313 2.925 5.849 6.656 7.305 10.89l0.054 0.18c0.392 1.311 0.618 2.818 0.618 4.378 0 2.233-0.463 4.357-1.298 6.282l0.040-0.103v0.512c-2.258 4.252-5.469 7.73-9.363 10.238l-0.108 0.065-0.895 0.64c-4.063 2.521-8.746 4.693-13.692 6.275l-0.45 0.124c-26.236 8.19-52.536 14.206-78.774 20.285-60.116 11.177-113.741 29.969-163.207 55.663l3.229-1.525c-129.646 63.479-177.576 33.851-244.639-7.551-20.176-13.216-43.944-26.72-68.542-38.787l-4.024-1.783 69.046-170.729c32.103 17.547 70.326 27.866 110.959 27.866 37.626 0 73.184-8.848 104.709-24.577l-1.361 0.614c34.409-16.072 74.709-25.45 117.201-25.45s82.79 9.378 118.943 26.177l-1.743-0.727h0.767c26.108 8.19 47.546 14.462 64.887 19.197 24.903 5.623 46.857 13.795 67.301 24.462l-1.518-0.721c17.616 13.629 32.643 29.49 44.975 47.354l0.459 0.704c8.767 10.943 19.197 24.189 32.828 40.251 15.806 19.197 30.076 34.747 42.234 48.185 28.86 31.995 44.794 49.274 37.243 57.144-43.194 29.82-90.868-7.167-141.293-46.33-22.628-18.993-47.886-36.435-74.711-51.404l-2.462-1.262c2.232-2.524 4.136-5.412 5.602-8.546l0.093-0.221 0.384-0.64c1.582-3.564 2.504-7.722 2.504-12.096 0-3.126-0.471-6.143-1.346-8.981l0.057 0.216c-2.275-7.188-6.283-13.284-11.545-18.013l-0.037-0.033c-14.247-11.781-32.703-18.927-52.827-18.927-2.986 0-5.935 0.157-8.838 0.464l0.361-0.031c-30.656 2.958-58.536 8.128-85.519 15.477l3.546-0.823c-57.464 13.951-117.68 28.028-148.012 0.767zM169.354 272.704l-55.225-22.397 94.131-232.289 55.289 22.397c1.529 0.677 2.578 2.182 2.578 3.931 0 0.542-0.101 1.060-0.284 1.537l0.010-0.029-91.059 224.546c-0.418 1.042-1.213 1.859-2.213 2.294l-0.027 0.011c-0.473 0.199-1.023 0.315-1.6 0.315s-1.127-0.115-1.628-0.325l0.028 0.011zM215.684 85.529c1.831 0.768 3.958 1.214 6.189 1.214 9.047 0 16.382-7.335 16.382-16.382s-7.335-16.382-16.382-16.382c-6.858 0-12.732 4.214-15.173 10.194l-0.040 0.11c-0.767 1.83-1.213 3.957-1.213 6.187 0 6.833 4.182 12.688 10.128 15.145l0.109 0.040zM85.653 269.057c1.286 0.529 2.779 0.835 4.344 0.835 4.853 0 9.016-2.952 10.792-7.158l0.029-0.077 0.448-1.088 62.264 25.277c2.224 0.955 4.812 1.511 7.53 1.511 8.117 0 15.077-4.955 18.019-12.005l0.047-0.129 90.868-223.969v-0.895c0.867-2.133 1.371-4.607 1.371-7.199s-0.504-5.066-1.419-7.331l0.047 0.132c-1.957-4.614-5.528-8.225-9.988-10.191l-0.123-0.048-1.088-0.831-61.944-25.085 0.448-1.088c0.543-1.301 0.858-2.814 0.858-4.4 0-4.861-2.962-9.031-7.18-10.802l-0.078-0.029-78.325-31.995c-1.301-0.543-2.814-0.858-4.4-0.858-4.861 0-9.031 2.962-10.802 7.18l-0.029 0.078-106.482 263.325c-0.529 1.286-0.835 2.779-0.835 4.344 0 4.853 2.952 9.016 7.158 10.792l0.077 0.029zM877.995 630.544c22.039-30.918 35.243-69.46 35.259-111.085v-0.004c-2.933-111.376-93.918-200.544-205.729-200.544-1.734 0-3.462 0.021-5.185 0.064l0.256-0.005c-1.488-0.039-3.239-0.061-4.995-0.061-111.812 0-202.798 89.169-205.724 200.275l-0.006 0.271c0.016 41.63 13.22 80.172 35.659 111.681l-0.4-0.591c29.979 44.569 65.419 82.594 105.986 114.375l1.072 0.809h136.749c41.639-32.591 77.080-70.616 105.948-113.438l1.11-1.747zM639.947 804.217h125.231c10.906-0.036 19.737-8.868 19.774-19.77v-0.004c0 0 0 0 0 0 0-10.933-8.845-19.801-19.77-19.838h-125.235c-10.928 0.037-19.774 8.904-19.774 19.838 0 0 0 0 0 0v0c0.036 10.906 8.868 19.737 19.77 19.774h0.004zM620.75 483.364c0.217-39.786 29.729-72.613 68.051-78.021l0.42-0.048v-30.46h27.516v30.012c19.050 1.212 36.071 9.027 48.996 21.156l-0.042-0.039c13.834 13.78 22.394 32.845 22.394 53.91 0 1.070-0.022 2.135-0.066 3.195l0.005-0.152c0.012 0.484 0.018 1.053 0.018 1.625 0 11.285-2.555 21.971-7.119 31.515l0.19-0.441c-4.454 8.973-10.986 16.326-18.994 21.63l-0.204 0.127c-12.736 6.961-27.581 13.202-43.089 17.92l-1.705 0.446v69.815c17.528-4.279 30.334-19.848 30.334-38.409 0-0.153-0.001-0.305-0.003-0.457v0.023l33.339 5.631c-1.48 14.579-6.048 27.832-13.038 39.464l0.239-0.429c-6.538 9.436-15.347 16.867-25.653 21.596l-0.391 0.161c-7.313 3.484-15.8 6.027-24.722 7.186l-0.427 0.046v30.331h-27.516v-30.204c-16.586-1.376-31.334-8.31-42.59-18.911l0.036 0.033c-12.445-12.419-20.144-29.589-20.144-48.558 0-0.926 0.018-1.849 0.055-2.767l-0.004 0.132c-0.006-0.336-0.009-0.732-0.009-1.129 0-11.455 2.722-22.276 7.554-31.848l-0.185 0.405c4.897-9.484 11.986-17.231 20.627-22.769l0.234-0.141c9.826-5.634 21.224-10.649 33.168-14.437l1.26-0.345v-79.157c-7.103 2.082-13.222 5.634-18.265 10.328l0.027-0.025c-9.538 10.058-15.655 23.444-16.439 38.245l-0.007 0.15-33.787-6.399zM716.737 439.338c9.328 0.947 17.64 4.684 24.248 10.352l-0.059-0.049c7.479 6.632 12.169 16.267 12.169 26.996 0 0.318-0.004 0.635-0.013 0.951l0.001-0.047c0.021 0.4 0.033 0.868 0.033 1.34 0 8.664-4.071 16.378-10.405 21.333l-0.059 0.045c-7.364 4.551-15.866 8.329-24.879 10.896l-0.717 0.174v-71.99zM689.22 625.872c-7.322-0.93-13.858-3.72-19.293-7.877l0.096 0.071c-6.648-5.188-10.883-13.201-10.883-22.203 0-0.158 0.001-0.316 0.004-0.474v0.024c-0.013-0.305-0.020-0.665-0.020-1.024 0-8.382 4.029-15.824 10.257-20.493l0.066-0.047c5.506-3.369 11.857-6.318 18.549-8.518l0.648-0.185v60.792zM649.545 823.286l-44.922 108.402c97.971-38.011 96.947 42.298 195.877 0l-44.794-108.402z" />
<glyph unicode="&#xe90c;" glyph-name="dre_reporting" d="M526.177 661.952v76.8c0 6.912-2.24 11.456-7.168 11.456h-21.952v-98.816h21.952c4.992 0 7.168 3.648 7.168 10.56zM842.401 960h-660.8c-25.893-0.253-46.786-21.301-46.786-47.23 0-0.136 0.001-0.271 0.002-0.407v0.021-928.704c-0.002-0.153-0.003-0.333-0.003-0.514 0-25.916 20.901-46.951 46.766-47.166h498.58c0.036 0 0.080-0.001 0.123-0.001 3.077 0 5.862 1.248 7.877 3.265v0l197.44 192c2.178 2.256 3.535 5.317 3.584 8.694v772.426c0.001 0.096 0.001 0.209 0.001 0.323 0 25.941-20.885 47.005-46.758 47.293h-0.027zM602.401 795.84h93.184v-45.696h-48.384v-88.192h45.248v-45.76h-45.248v-93.248h50.176v-45.696h-94.976zM452.257 795.84h76.8c34.048 0 41.664-15.936 41.664-58.048v-68.544c0-33.344-4.928-50.304-23.296-55.808l42.112-136.192h-48.128l-37.184 128.448h-7.168v-128.448h-44.8zM298.081 477.248v318.592h76.8c33.984 0 45.632-20.544 45.632-62.592v-193.408c0-41.984-11.648-62.592-45.632-62.592zM749.217 374.272l-2.624-2.88-149.952-170.816c-26.057-30.253-52.691-57.759-80.834-83.651l-0.702-0.637c-12.655-13.98-28.919-24.471-47.325-30.017l-0.739-0.191c-14.249 0.88-27.212 5.736-37.978 13.461l0.218-0.149c-12.545 6.587-22.644 16.357-29.446 28.255l-0.186 0.353c-5.642 15.639-9.841 33.858-11.817 52.738l-0.087 1.022c-3.951 26.229-6.623 57.2-7.405 88.641l-0.019 0.959c-0.003 0.223-0.004 0.487-0.004 0.751 0 18.963 7.708 36.126 20.162 48.527l0.002 0.002c11.296 13.713 27.935 22.673 46.686 23.673l0.162 0.007c16.576 0.576 26.752-14.592 30.848-45.312 0.448-3.584 0.704-6.4 0.96-7.936 2.090-18.379 5.826-35.069 11.131-51.043l-0.507 1.763c3.904-9.216 8.704-13.696 14.72-13.44 2.56 0 7.040 2.88 13.76 8.576 8.519 7.536 16.327 15.183 23.736 23.204l0.2 0.22 154.24 165.248c10.547 11.711 21.98 22.21 34.334 31.558l0.61 0.442c7.255 5.987 16.314 10.036 26.251 11.24l0.245 0.024c0.378 0.041 0.817 0.065 1.262 0.065 4.525 0 8.478-2.446 10.611-6.087l0.031-0.058c2.474-5.462 3.915-11.843 3.915-18.56 0-0.923-0.027-1.84-0.081-2.749l0.006 0.125v-8.448c-0.24-22.952-9.501-43.696-24.398-58.894l0.014 0.014zM364.833 750.144h-21.952v-227.2h21.952c7.104 0 11.2 5.504 11.2 15.552v196.096c0 10.048-4.096 15.552-11.2 15.552z" />
<glyph unicode="&#xe90d;" glyph-name="education_2" d="M676.791 355.913c-1.088-49.471-74.431-89.599-164.797-89.599s-163.709 39.999-164.797 89.599c-138.778-13.228-246.46-129.202-246.46-270.328 0-0.001 0-0.003 0-0.004v0c0-149.182 120.318-149.566 269.244-149.566h284.027c148.926 0 269.244 0.384 269.244 149.566 0 0.001 0 0.002 0 0.004 0 141.126-107.682 257.101-245.364 270.244l-1.096 0.085zM224.383 816.194l19.2-8.384-1.664-12.8c-7.441-1.347-13.011-7.776-13.011-15.505 0-6.94 4.49-12.831 10.724-14.927l0.111-0.032-11.584-165.309c-0.031-0.81-0.048-1.761-0.048-2.716 0-7.723 1.14-15.18 3.261-22.212l-0.141 0.544 9.6-28.736c2.176-6.4 5.696-6.4 7.936 0l9.536 28.736c1.986 6.413 3.13 13.785 3.13 21.425 0 1.041-0.021 2.076-0.063 3.107l0.005-0.148-11.776 165.053c6.449 2.042 11.042 7.974 11.042 14.978 0 7.791-5.682 14.254-13.128 15.473l-0.091 0.012-1.536 12.16 44.799-19.2 21.952-9.536v-82.559c-2.281-7.559-4.378-16.918-5.859-26.481l-0.157-1.231c-1.498-9.974-2.358-21.49-2.368-33.205v-0.010c0-4.608 0-9.088 0.448-13.632 0.384-6.4 0.96-12.8 1.92-19.2 0-1.984 0-3.904 0.512-5.888 4.89-72.71 30.871-138.533 71.807-192.362l-0.64 0.877c4.416-5.504 9.024-10.688 13.696-15.616 29.632-33.372 72.196-54.695 119.761-56.058l0.237-0.005c47.811 1.385 90.377 22.731 119.848 55.955l0.15 0.172c4.672 4.928 9.28 10.112 13.632 15.616 40.177 52.72 66.138 118.235 71.105 189.535l0.062 1.118 0.512 5.888c0.96 6.4 1.536 12.8 1.92 19.2 0 4.544 0.448 9.024 0.448 13.632-0.010 11.726-0.87 23.242-2.523 34.5l0.155-1.285c-1.638 10.768-3.735 20.105-6.406 29.196l0.39-1.548v83.263l88.255 38.143c17.344 7.552 17.344 19.776 0 27.328l-255.996 110.846c-9.38 3.556-20.226 5.615-31.551 5.615s-22.172-2.059-32.181-5.823l0.63 0.208-255.996-110.846c-17.408-7.552-17.408-19.776-0.064-27.328zM358.396 673.54l122.046-52.735c9.376-3.588 20.222-5.666 31.551-5.666s22.176 2.078 32.174 5.873l-0.623-0.208 122.11 52.863c1.169-10.849 1.836-23.433 1.836-36.173 0-20.153-1.669-39.916-4.875-59.16l0.287 2.086c8.234 5.934 17.862 10.573 28.247 13.363l0.617 0.141c-11.968-129.598-87.871-229.436-179.773-229.436s-167.869 99.838-179.773 229.308c10.979-2.935 20.585-7.573 29.060-13.682l-0.26 0.178c-2.864 17.020-4.501 36.628-4.501 56.619 0 12.901 0.682 25.643 2.011 38.19l-0.134-1.563z" />
<glyph unicode="&#xe90e;" glyph-name="education" d="M570.876 747.214c-17.711 4.695-38.045 7.392-59.008 7.392s-41.297-2.696-60.673-7.761l1.665 0.37-428.672-130.048c-32.448-9.856-32.448-25.984 0-35.84l428.8-130.048c17.711-4.695 38.045-7.392 59.008-7.392s41.297 2.696 60.673 7.761l-1.665-0.37 428.8 130.048c32.448 9.856 32.448 25.984 0 35.84zM461.564 374.414l-262.4 81.792v-233.472s63.104-81.344 312.704-81.344 312.832 81.344 312.832 81.344v233.472l-262.528-81.792c-15.042-4.841-32.347-7.632-50.304-7.632s-35.262 2.791-51.505 7.962l1.201-0.33zM69.436 339.214v0 173.44l-34.688 12.16v-185.6l-21.056-38.912c-3.304-5.999-5.248-13.148-5.248-20.751 0-0.017 0-0.035 0-0.052v0.003-2.432c0-0.019 0-0.042 0-0.064 0-24.071 19.513-43.584 43.584-43.584 0 0 0 0 0 0v0c24.106 0 43.648 19.542 43.648 43.648v0 2.432c0 0.015 0 0.032 0 0.049 0 7.603-1.944 14.752-5.362 20.977l0.114-0.227z" />
<glyph unicode="&#xe90f;" glyph-name="escrow_administration" d="M844.139 43.455l-176.512 2.56c-5.239 0.036-9.472 4.292-9.472 9.536 0 0 0 0 0 0v0l-2.56 176.384c-0.002 0.070-0.003 0.151-0.003 0.234 0 3.963 2.401 7.365 5.828 8.831l0.063 0.024c1.109 0.469 2.399 0.742 3.753 0.742 2.673 0 5.098-1.064 6.874-2.792l-0.002 0.002 50.752-50.816 220.736 220.8c1.757 1.742 4.177 2.819 6.848 2.819s5.091-1.077 6.849-2.819l63.999-63.999c1.742-1.757 2.819-4.177 2.819-6.848s-1.077-5.091-2.819-6.849l-220.799-220.735 50.752-50.688c1.758-1.789 2.843-4.243 2.843-6.951 0-1.347-0.269-2.631-0.755-3.803l0.024 0.066c-0.518-1.198-1.231-2.219-2.11-3.070l-0.002-0.002c-1.745-1.631-4.096-2.633-6.681-2.633-0.149 0-0.297 0.003-0.444 0.010l0.021-0.001zM155.307 871.935l176.512-2.56c5.225-0.072 9.436-4.306 9.472-9.533v-0.003l2.496-176.448c0.002-0.076 0.003-0.165 0.003-0.255 0-3.94-2.406-7.319-5.829-8.746l-0.063-0.023c-1.111-0.486-2.405-0.77-3.766-0.77-2.654 0-5.056 1.077-6.794 2.817v0l-50.752 50.688-196.416-196.352c-1.753-1.777-4.188-2.877-6.88-2.877s-5.127 1.101-6.879 2.876l-0.001 0.001-63.68 63.744c-1.761 1.761-2.851 4.193-2.851 6.88s1.089 5.119 2.851 6.88l196.288 196.352-50.688 50.752c-1.745 1.748-2.825 4.162-2.825 6.828 0 1.372 0.286 2.677 0.801 3.859l-0.024-0.062c0.513 1.213 1.203 2.253 2.052 3.14l-0.004-0.004c1.767 1.741 4.194 2.817 6.872 2.817 0.037 0 0.073 0 0.109-0.001h-0.006zM942.507 614.207l-265.408 216.192c-0.86 0.672-1.895 1.164-3.024 1.4l-0.048 0.008-0.896 0.32c-0.188 0.016-0.408 0.024-0.629 0.024-1.838 0-3.534-0.61-4.896-1.639l0.020 0.015-265.408-216.32c-1.641-1.336-2.681-3.357-2.681-5.621 0-1.791 0.651-3.43 1.73-4.693l-0.008 0.010 38.848-47.808c1.359-1.619 3.371-2.652 5.626-2.688h0.006c1.767 0.015 3.39 0.614 4.69 1.614l-0.018-0.014 34.368 28.032v-163.904c-0.001-0.038-0.001-0.083-0.001-0.128 0-4.029 3.267-7.296 7.296-7.296 0 0 0.001 0 0.001 0h134.4v138.816h92.8v-138.816h134.4c0 0 0.001 0 0.001 0 4.029 0 7.296 3.267 7.296 7.296 0 0.045 0 0.090-0.001 0.135v-0.007 162.944l33.216-27.072c1.242-0.989 2.833-1.586 4.564-1.586 2.279 0 4.316 1.036 5.666 2.662l0.010 0.012 38.976 47.808c1.055 1.265 1.695 2.907 1.695 4.698 0 2.241-1.001 4.247-2.581 5.597l-0.010 0.008zM899.435 580.479l-224 180.736c-0.855 0.734-1.975 1.18-3.2 1.18s-2.345-0.447-3.207-1.186l0.007 0.006-220.096-176.384-19.968 24.512 243.2 195.2 247.040-199.552zM280.683 315.775c0.019 0 0.041 0 0.064 0 68.501 0 124.032 55.531 124.032 124.032s-55.531 124.032-124.032 124.032c-68.501 0-124.032-55.531-124.032-124.032 0-0.022 0-0.045 0-0.067v0.003c0.036-68.451 55.517-123.932 123.965-123.968h0.003zM360.683 293.055h-160c-94.002-0.182-170.14-76.41-170.176-170.429v-98.307h75.776c0 0.64-0.704 1.024-0.704 1.664v132.8c0.511 7.323 6.576 13.069 13.984 13.069s13.473-5.747 13.982-13.025l0.002-0.044v-133.056c0-0.64-0.576-1.024-0.704-1.664h297.472c0 0.64-0.64 1.024-0.64 1.664v133.056c0 7.705 6.247 13.952 13.952 13.952s13.952-6.247 13.952-13.952v0-133.056c0-0.64-0.576-1.024-0.64-1.664h74.112v98.56c-0.109 94.061-76.313 170.286-170.354 170.432h-0.014z" />
<glyph unicode="&#xe910;" glyph-name="franchisors" d="M273.297 221.267l27.327 35.71c-2.432 2.688-4.864 5.44-7.232 8.256-4.089 4.847-10.168 7.905-16.959 7.905-12.23 0-22.144-9.915-22.144-22.144 0-5.438 1.96-10.418 5.213-14.272l-0.027 0.033c4.48-5.312 9.088-10.495 13.823-15.487zM204.308 470.791v0c-12.222-0.072-22.107-9.98-22.143-22.204v-0.003c0-0.020 0-0.043 0-0.067 0-40.442 7.297-79.18 20.646-114.968l-0.743 2.273c3.193-8.568 11.292-14.564 20.796-14.591h0.003c2.713 0.013 5.307 0.504 7.707 1.394l-0.155-0.050c8.555 3.195 14.535 11.296 14.535 20.795 0 2.735-0.496 5.354-1.403 7.773l0.050-0.153c-10.854 29.051-17.14 62.62-17.151 97.655v0.004c0 12.229-9.914 22.143-22.143 22.143v0zM293.072 632.191c3.196 3.82 5.136 8.785 5.136 14.203 0 6.823-3.077 12.926-7.918 17l-0.034 0.028c-1.821 1.557-3.941 2.834-6.252 3.726l-0.148 0.050c-2.312 0.898-4.987 1.418-7.784 1.418-6.743 0-12.779-3.022-16.829-7.786l-0.026-0.031c-23.81-28.209-43.189-61.12-56.476-96.988l-0.737-2.271c-0.85-2.254-1.342-4.86-1.342-7.581 0-9.508 6.009-17.611 14.436-20.72l0.153-0.049c2.245-0.841 4.839-1.333 7.547-1.344h0.005c9.337 0.135 17.258 6.045 20.365 14.311l0.050 0.152c10.816 29.366 25.091 54.769 42.718 77.437l-0.48-0.641c2.368 3.072 4.8 6.4 7.36 9.088zM764.281 661.438c-4.089 4.831-10.156 7.877-16.935 7.877-2.528 0-4.957-0.424-7.22-1.204l0.156 0.047c-2.772-0.992-5.17-2.359-7.278-4.068l0.046 0.036c-4.809-4.099-7.839-10.162-7.839-16.932 0-5.462 1.972-10.462 5.242-14.33l-0.027 0.033q4.032-4.8 7.872-9.792v0c16.941-21.785 31.096-46.883 41.268-73.93l0.65-1.97c3.177-8.579 11.285-14.584 20.798-14.591h0.001c2.739 0.002 5.356 0.518 7.761 1.458l-0.145-0.050c8.562 3.169 14.554 11.263 14.554 20.757 0 2.75-0.503 5.382-1.421 7.81l0.050-0.152c-14.163 38.054-33.662 70.876-57.983 99.468l0.386-0.465zM797.559 449.544v-0.576c0-0.124 0-0.271 0-0.418 0-34.916-6.288-68.364-17.793-99.272l0.642 1.968c-0.839-2.244-1.324-4.837-1.324-7.543 0-9.513 5.998-17.624 14.418-20.758l0.153-0.050c2.26-0.852 4.872-1.345 7.599-1.345 9.52 0 17.637 6.008 20.766 14.439l0.050 0.153c12.525 33.427 19.775 72.057 19.775 112.379 0 0.158 0 0.315 0 0.473v-0.025 0.704c0 12.229-9.914 22.143-22.143 22.143s-22.143-9.914-22.143-22.143v0zM764.729 236.818c3.221 3.823 5.178 8.803 5.178 14.239 0 12.243-9.926 22.169-22.169 22.169-6.807 0-12.897-3.068-16.964-7.896l-0.027-0.033c-2.368-2.816-4.864-5.696-7.36-8.448l27.327-35.71c4.8 5.056 9.472 10.304 14.015 15.679zM357.58 785.4c3.676 4.844 5.888 10.973 5.888 17.62 0 0.015 0 0.030 0 0.045v-0.002 37.566h50.302v-37.566c0-16.4 13.294-29.695 29.695-29.695s29.695 13.294 29.695 29.695v0 37.566h75.516v-37.566c0.758-15.83 13.776-28.379 29.727-28.379s28.97 12.548 29.724 28.312l0.003 0.068v37.566h52.413v-37.566c0-0.013 0-0.028 0-0.043 0-6.647 2.212-12.776 5.941-17.693l-0.053 0.073v-144.761c0 0 0 0 0-0.001 0-2.121-1.719-3.84-3.84-3.84-0.023 0-0.045 0-0.067 0.001h-88.441v83.196c0 10.286-8.338 18.623-18.623 18.623v0h-86.908c-10.286 0-18.623-8.338-18.623-18.623v0-83.196h-88.444c-0.019 0-0.041-0.001-0.064-0.001-2.121 0-3.84 1.719-3.84 3.84 0 0 0 0 0 0.001v0 144.761zM361.484 607.232h300.785c0 0 0 0 0 0 18.463 0 33.434 14.948 33.47 33.403v133.309c13.735 2.788 23.929 14.761 23.935 29.118v56.702h-415.98v-56.701c0.012-14.374 10.237-26.358 23.809-29.087l0.19-0.032v-133.306c0-18.45 14.956-33.406 33.406-33.406v0zM603.585 870.388l-26.431 60.029h50.046l28.351-60.285zM475.591 870.388l12.799 60.285h45.502l12.799-60.285zM418.506 870.388h-49.214l33.918 60.029h41.662l-26.559-60.029zM665.598 930.417l-22.335 29.567h-262.387l-22.463-29.567-54.077-70.397h415.98l-54.717 70.397zM283.728 77.402c-11.82 10.883-20.074 25.477-22.912 41.925l-0.063 0.441c-99.502 76.377-163.010 195.361-163.010 329.176 0 135.001 64.638 254.905 164.654 330.452l1.044 0.756c-2.313 6.839-3.648 14.715-3.648 22.903 0 0.003 0 0.005 0 0.008v0 28.927c-27.012-18.006-50.582-37.368-72.066-58.818l0.005 0.005c-83.001-82.983-134.339-197.632-134.339-324.272s51.339-241.289 134.338-324.271l0.001-0.001c27.945-27.988 59.463-52.394 93.814-72.482l2.181-1.178v26.367zM836.277 773.24c-21.477 21.419-45.047 40.761-70.369 57.685l-1.692 1.064v-28.991c0-0.002 0-0.005 0-0.008 0-8.189-1.335-16.064-3.799-23.424l0.151 0.52c101.060-76.303 165.698-196.207 165.698-331.208 0-133.817-63.509-252.8-162.029-328.453l-0.981-0.723c-2.901-16.889-11.155-31.482-22.923-42.319l-0.052-0.047v-26.111c36.532 21.266 68.051 45.673 95.989 73.654l0.006 0.006c83.001 82.983 134.339 197.632 134.339 324.272s-51.339 241.289-134.338 324.271l-0.001 0.001zM603.585 198.932l-26.431 60.285h50.046l28.351-60.285zM475.591 198.932l12.799 60.285h45.502l12.799-60.285zM418.506 198.932h-49.214l33.918 60.285h41.662l-26.431-60.285zM665.598 259.217l-22.591 29.567h-262.387l-22.207-29.567-54.077-70.397h415.98l-54.077 70.397zM555.459 67.482h-86.908c-10.286 0-18.623-8.338-18.623-18.623v0-83.196h-88.444c-0.019 0-0.041-0.001-0.064-0.001-2.121 0-3.84 1.719-3.84 3.84 0 0 0 0 0 0.001v0 144.697c3.676 4.844 5.888 10.973 5.888 17.62 0 0.015 0 0.030 0 0.045v-0.002 37.502h50.302v-37.502c0-16.4 13.294-29.695 29.695-29.695s29.695 13.294 29.695 29.695v0 37.502h75.516v-37.502c0.758-15.83 13.776-28.379 29.727-28.379s28.97 12.548 29.724 28.312l0.003 0.068v37.502h52.413v-37.502c0-0.013 0-0.028 0-0.043 0-6.647 2.212-12.776 5.941-17.693l-0.053 0.073v-144.761c0 0 0 0 0-0.001 0-2.121-1.719-3.84-3.84-3.84-0.023 0-0.045 0-0.067 0.001h-88.441v83.196c0 10.286-8.338 18.623-18.623 18.623v0zM696.252-30.561v132.986c13.735 2.788 23.929 14.761 23.935 29.118v56.702h-415.98v-56.701c0.012-14.374 10.237-26.358 23.809-29.087l0.19-0.032v-133.306c0.18-18.267 14.995-33.015 33.271-33.086h300.792c0 0 0 0 0 0 18.463 0 33.434 14.948 33.47 33.403v0.003z" />
<glyph unicode="&#xe911;" glyph-name="fund_management" d="M173.754 704.857c0.019 0 0.041 0 0.064 0 47.574 0 86.141 38.567 86.141 86.141s-38.567 86.141-86.141 86.141c-47.574 0-86.141-38.567-86.141-86.141 0-0.022 0-0.045 0-0.067v0.003c0.036-47.524 38.553-86.041 86.074-86.077h0.003zM229.24 689.113h-110.908c-65.324-0.073-118.259-53.008-118.332-118.325v-68.229h52.606c0 0.384-0.448 0.64-0.448 1.088v92.221c-0.081 0.473-0.128 1.017-0.128 1.573 0 5.373 4.355 9.728 9.728 9.728s9.728-4.355 9.728-9.728c0-0.555-0.047-1.1-0.136-1.63l0.008 0.057v-92.221c0-0.448-0.384-0.704-0.448-1.088h206.713c0 0.384-0.448 0.64-0.448 1.088v92.221c-0.081 0.473-0.128 1.017-0.128 1.573 0 5.373 4.355 9.728 9.728 9.728s9.728-4.355 9.728-9.728c0-0.555-0.047-1.1-0.136-1.63l0.008 0.057v-92.221c0-0.448-0.448-0.704-0.512-1.088h51.198v68.222c-0.036 65.159-52.702 118.005-117.789 118.332h-0.031zM850.148 704.857c0.019 0 0.041 0 0.064 0 47.574 0 86.141 38.567 86.141 86.141s-38.567 86.141-86.141 86.141c-47.574 0-86.141-38.567-86.141-86.141 0-0.022 0-0.045 0-0.067v0.003c0.036-47.524 38.553-86.041 86.074-86.077h0.003zM905.698 689.113h-110.972c-65.311-0.073-118.232-53.016-118.268-118.328v-68.226h52.606c0 0.384-0.448 0.64-0.448 1.088v92.221c-0.081 0.473-0.128 1.017-0.128 1.573 0 5.373 4.355 9.728 9.728 9.728s9.728-4.355 9.728-9.728c0-0.555-0.047-1.1-0.136-1.63l0.008 0.057v-92.221c0-0.448-0.448-0.704-0.512-1.088h206.585c0 0.384-0.512 0.64-0.512 1.088v92.221c-0.081 0.473-0.128 1.017-0.128 1.573 0 5.373 4.355 9.728 9.728 9.728s9.728-4.355 9.728-9.728c0-0.555-0.047-1.1-0.136-1.63l0.008 0.057v-92.221c0-0.448-0.384-0.704-0.448-1.088h51.838v68.222c-0.073 65.301-52.972 118.223-118.257 118.332h-0.011zM173.754 221.224c47.539 0 86.077 38.538 86.077 86.077s-38.538 86.077-86.077 86.077c-47.539 0-86.077-38.538-86.077-86.077 0-0.045 0-0.090 0-0.135v0.007c0.109-47.469 38.598-85.913 86.074-85.949h0.003zM229.24 205.481h-110.908c-65.346-0.073-118.296-53.045-118.332-118.393v-68.225h52.606c0 0.448-0.448 0.704-0.448 1.152v92.221c-0.081 0.473-0.128 1.017-0.128 1.573 0 5.373 4.355 9.728 9.728 9.728s9.728-4.355 9.728-9.728c0-0.555-0.047-1.1-0.136-1.63l0.008 0.057v-92.221c0-0.448-0.384-0.704-0.448-1.152h206.713c0 0.448-0.448 0.704-0.448 1.152v92.221c-0.081 0.473-0.128 1.017-0.128 1.573 0 5.373 4.355 9.728 9.728 9.728s9.728-4.355 9.728-9.728c0-0.555-0.047-1.1-0.136-1.63l0.008 0.057v-92.221c0-0.448-0.448-0.704-0.512-1.152h51.198v68.222c-0.035 65.172-52.694 118.033-117.785 118.396h-0.035zM847.14 221.224c47.539 0 86.077 38.538 86.077 86.077s-38.538 86.077-86.077 86.077c-47.539 0-86.077-38.538-86.077-86.077 0-0.045 0-0.090 0-0.135v0.007c0.109-47.469 38.598-85.913 86.074-85.949h0.003zM902.37 205.481h-110.652c-65.346-0.073-118.296-53.045-118.332-118.393v-68.225h52.606c0 0.448-0.448 0.704-0.448 1.152v92.221c-0.081 0.473-0.128 1.017-0.128 1.573 0 5.373 4.355 9.728 9.728 9.728s9.728-4.355 9.728-9.728c0-0.555-0.047-1.1-0.136-1.63l0.008 0.057v-92.221c0-0.448-0.384-0.704-0.448-1.152h206.713c0 0.448-0.448 0.704-0.448 1.152v92.221c-0.081 0.473-0.128 1.017-0.128 1.573 0 5.373 4.355 9.728 9.728 9.728s9.728-4.355 9.728-9.728c0-0.555-0.047-1.1-0.136-1.63l0.008 0.057v-92.221c0-0.448-0.448-0.704-0.512-1.152h51.198v68.222c-0.036 65.262-52.84 118.178-118.055 118.396h-0.021zM711.081 384.931l-185.658 151.227c-0.617 0.514-1.377 0.876-2.212 1.020l-0.028 0.004h-0.384c-0.187 0.029-0.403 0.045-0.623 0.045-1.088 0-2.082-0.405-2.838-1.073l0.005 0.004-185.594-151.227c-1.004-0.873-1.635-2.153-1.635-3.58 0-1.062 0.35-2.043 0.94-2.833l-0.009 0.012 27.263-33.407c0.873-1.004 2.153-1.635 3.58-1.635 1.062 0 2.043 0.35 2.833 0.94l-0.012-0.009 25.023 20.159v-132.284h262.392v131.324l23.871-19.199c0.778-0.582 1.758-0.931 2.82-0.931 1.427 0 2.707 0.631 3.575 1.629l0.005 0.006 27.263 33.407c0.582 0.778 0.931 1.758 0.931 2.82 0 1.427-0.631 2.707-1.629 3.575l-0.006 0.005zM555.054 242.536h-65.15v109.436h65.726zM680.234 354.468l-154.939 126.14c-0.788 0.673-1.818 1.083-2.944 1.083s-2.156-0.41-2.95-1.088l0.006 0.005-154.619-126.14-21.247 26.111 179.194 145.915 179.194-145.915z" />
<glyph unicode="&#xe912;" glyph-name="graduated_terms_mortgage" d="M0.017 12.628v677.087h263.731v-230.453h270.131v-216.118h260.723v-230.517h-794.586zM842.664 70.289v230.517h-260.723v216.054h-270.131v230.517h-262.259l181.303 135.993h262.259v-230.517h270.195v-216.054h260.659v-230.517l-181.303-135.993z" />
<glyph unicode="&#xe913;" glyph-name="heloc" d="M750.636 312.587l-234.485 191.031c-0.752 0.586-1.659 1.011-2.647 1.209l-0.041 0.007h-0.768c-0.199 0.020-0.43 0.031-0.663 0.031-1.58 0-3.040-0.516-4.22-1.389l0.019 0.014-234.485-190.903c-1.46-1.183-2.385-2.975-2.385-4.984 0-1.566 0.563-3.001 1.497-4.114l-0.008 0.010 34.366-42.238c1.183-1.45 2.969-2.368 4.97-2.368 0.008 0 0.015 0 0.023 0h-0.001c1.549 0.020 2.971 0.546 4.113 1.42l-0.017-0.012 30.335 24.767v-144.825c0-3.535 2.865-6.4 6.4-6.4v0h118.906v122.682h81.98v-122.81h118.778c3.535 0 6.4 2.865 6.4 6.4v0 143.993l29.311-23.935c1.083-0.87 2.475-1.396 3.989-1.396 0.286 0 0.567 0.019 0.843 0.055l-0.032-0.003c1.735 0.184 3.242 1.038 4.279 2.293l0.009 0.011 34.43 42.238c0.966 1.114 1.554 2.579 1.554 4.18 0 2.038-0.952 3.853-2.436 5.025l-0.013 0.010zM712.558 282.828l-197.814 159.608c-0.725 0.629-1.678 1.012-2.72 1.012s-1.995-0.383-2.725-1.017l-194.674-155.764-17.663 21.631 215.030 172.408 218.229-176.247zM820.649 379.911c-7.602 0.002-14.123 4.622-16.914 11.207l-0.045 0.12c-48.773 115.315-160.958 194.757-291.698 194.757s-242.925-79.441-290.919-192.686l-0.779-2.070c-2.926-6.496-9.343-10.935-16.796-10.935-10.144 0-18.367 8.224-18.367 18.367 0 2.392 0.457 4.677 1.289 6.772l-0.043-0.124c54.425 128.727 179.648 217.411 325.584 217.411s271.159-88.685 324.715-215.101l0.869-2.311c0.959-2.149 1.517-4.658 1.517-7.296 0-10.109-8.195-18.303-18.303-18.303-0.038 0-0.077 0-0.115 0h0.006zM511.992-39.332c-0.178 0-0.389-0.001-0.6-0.001-145.832 0-270.924 88.8-324.152 215.278l-0.864 2.313c-0.523 1.627-0.825 3.5-0.825 5.442 0 10.144 8.224 18.367 18.367 18.367 7.109 0 13.274-4.039 16.328-9.948l0.048-0.103c48.773-115.315 160.958-194.757 291.698-194.757s242.925 79.441 290.919 192.686l0.779 2.070c2.826 6.698 9.338 11.312 16.927 11.312 10.119 0 18.32-8.203 18.32-18.32 0-2.528-0.512-4.937-1.438-7.128l0.045 0.12c-54.096-128.647-179.082-217.334-324.782-217.334-0.271 0-0.542 0-0.812 0.001h0.042zM522.807 762.677c47.68 0 86.332 38.652 86.332 86.332s-38.652 86.332-86.332 86.332c-47.68 0-86.332-38.652-86.332-86.332v0c0.073-47.651 38.681-86.259 86.325-86.332h0.007zM578.549 746.87h-111.355c-65.509-0.073-118.586-53.195-118.586-118.714 0 0 0 0 0 0v0-68.413h52.733c0 0.384-0.448 0.704-0.448 1.152v92.476c-0.081 0.473-0.128 1.017-0.128 1.573 0 5.373 4.355 9.728 9.728 9.728s9.728-4.355 9.728-9.728c0-0.555-0.047-1.1-0.136-1.63l0.008 0.057v-92.476c0-0.448-0.384-0.768-0.448-1.152h207.542c0 0.384-0.512 0.704-0.512 1.152v92.476c-0.081 0.473-0.128 1.017-0.128 1.573 0 5.373 4.355 9.728 9.728 9.728s9.728-4.355 9.728-9.728c0-0.555-0.047-1.1-0.136-1.63l0.008 0.057v-92.476c0-0.448-0.384-0.768-0.448-1.152h51.582v68.413c-0.036 65.46-53.019 118.532-118.441 118.714h-0.017zM174.28 277.58c0.019 0 0.041 0 0.064 0 47.715 0 86.396 38.681 86.396 86.396s-38.681 86.396-86.396 86.396c-47.715 0-86.396-38.681-86.396-86.396 0-0.023 0-0.045 0-0.068v0.004c0.036-47.665 38.667-86.296 86.328-86.332h0.004zM229.958 261.773h-111.291c-65.522-0.073-118.614-53.187-118.65-118.71v-68.417h52.797c0 0.448-0.512 0.704-0.512 1.152v92.476c0.422 5.057 4.63 9.001 9.76 9.001s9.338-3.944 9.758-8.965l0.002-0.036v-92.476c0-0.448-0.448-0.704-0.512-1.152h207.158c0 0.448-0.512 0.704-0.512 1.152v92.476c0.932 4.516 4.875 7.862 9.6 7.862s8.668-3.347 9.589-7.799l0.011-0.063v-92.476c0-0.448-0.448-0.704-0.512-1.152h51.646v68.413c-0.072 65.4-52.96 118.423-118.302 118.714h-0.028zM849.64 277.58c0.019 0 0.041 0 0.064 0 47.715 0 86.396 38.681 86.396 86.396s-38.681 86.396-86.396 86.396c-47.715 0-86.396-38.681-86.396-86.396 0-0.023 0-0.045 0-0.068v0.004c0.036-47.665 38.667-86.296 86.328-86.332h0.004zM905.317 261.773h-111.227c-65.535-0.073-118.641-53.179-118.714-118.707v-68.42h52.797c0 0.448-0.448 0.704-0.448 1.152v92.476c-0.081 0.473-0.128 1.017-0.128 1.573 0 5.373 4.355 9.728 9.728 9.728s9.728-4.355 9.728-9.728c0-0.555-0.047-1.1-0.136-1.63l0.008 0.057v-92.476c0-0.448-0.448-0.704-0.448-1.152h207.094c0 0.448-0.448 0.704-0.448 1.152v92.476c0.783 4.654 4.783 8.155 9.6 8.155s8.817-3.501 9.592-8.098l0.008-0.057v-92.476c0-0.448-0.384-0.704-0.448-1.152h52.093v68.413c-0.073 65.512-53.142 118.605-118.639 118.714h-0.011z" />
<glyph unicode="&#xe914;" glyph-name="hexagon_solid" d="M68.646 704.008l443.328 256 443.392-256v-512l-443.392-256-443.328 256v512z" />
<glyph unicode="&#xe915;" glyph-name="insurance" d="M886.943 830.773c-158.456 0-303.921 48.766-370.606 124.218l-4.352 4.992-4.352-4.992c-66.685-75.452-212.15-124.218-370.606-124.218h-5.824v-325.168c0-0.203 0-0.443 0-0.683 0-91.168 21.874-177.226 60.661-253.215l-1.463 3.158c35.107-68.358 78.495-126.882 129.872-177.295l0.106-0.104c38.697-38.347 81.141-73.047 126.692-103.459l3.094-1.944c16.574-11.35 35.958-22.971 56.024-33.464l3.237-1.542 2.56-1.024 2.56 1.28c23.303 12.035 42.687 23.656 61.305 36.318l-2.044-1.312c48.644 32.354 91.088 67.055 129.849 105.465l-0.063-0.062c51.482 50.517 94.87 109.041 128.197 173.605l1.781 3.795c37.323 72.83 59.197 158.889 59.197 250.057 0 0.15 0 0.3 0 0.451v-0.023 325.168z" />
<glyph unicode="&#xe916;" glyph-name="investor_borrower_portal" d="M897.472 585.452c-5.388 0.382-9.665 4.658-10.045 10.013l-0.002 0.034c-8.796 68.869-67.032 121.568-137.58 121.584h-0.002c-22.013 0-26.749 136.622-197.99 136.622-0.173 0-0.379 0.001-0.584 0.001-89.768 0-167.29-52.438-203.604-128.353l-0.586-1.359c-1.303-3.355-4.505-5.689-8.253-5.689-1.056 0-2.069 0.185-3.007 0.525l0.061-0.019c-24.54 8.706-52.842 13.736-82.32 13.736-140.024 0-253.535-113.511-253.535-253.535s113.511-253.535 253.535-253.535c57.060 0 109.718 18.85 152.085 50.661l-0.654-0.47c2.2 1.67 4.984 2.676 8.004 2.676 1.895 0 3.697-0.396 5.328-1.109l-0.086 0.033c19.918-8.539 43.099-13.504 67.439-13.504 37.185 0 71.665 11.589 100.022 31.351l-0.572-0.377c1.72 1.22 3.862 1.95 6.174 1.95 2.714 0 5.192-1.006 7.084-2.665l-0.012 0.011c30.322-25.669 69.877-41.275 113.076-41.275 0.044 0 0.088 0 0.132 0h-0.007c0.902-0.017 1.966-0.027 3.033-0.027 68.15 0 127.037 39.663 154.836 97.164l0.447 1.026c0.899 2.082 2.934 3.512 5.302 3.512 0.597 0 1.172-0.091 1.714-0.259l-0.041 0.011c8.615-2.208 18.705-3.783 29.053-4.394l0.447-0.021c0.511-0.008 1.113-0.013 1.717-0.013 62.806 0 113.949 49.934 115.896 112.267l0.004 0.179c-1.113 68.308-56.748 123.255-125.216 123.255-0.456 0-0.911-0.002-1.365-0.007l0.069 0.001zM903.935 42.29h-764.253c-13.854 0-25.085 11.231-25.085 25.085s11.231 25.085 25.085 25.085h764.253c13.854 0 25.085-11.231 25.085-25.085s-11.231-25.085-25.085-25.085v0zM903.935 144.805h-439.495c-13.854 0-25.085 11.231-25.085 25.085s11.231 25.085 25.085 25.085h439.495c13.854 0 25.085-11.231 25.085-25.085s-11.231-25.085-25.085-25.085v0z" />
<glyph unicode="&#xe917;" glyph-name="land_development" d="M663.559 592.015h269.871v-31.742h-269.871v31.742zM207.828 206.425l333.37 333.37 22.445-22.445-333.37-333.37-22.445 22.445zM155.56 84.080h492.128v-31.742h-492.128v31.742zM826.912 206.437l174.627 174.627 22.445-22.445-174.627-174.627-22.445 22.445zM965.108 592.015h47.613v-31.742h-47.613v31.742zM508.177 754.244c1.353 49.665 41.936 89.41 91.802 89.41s90.449-39.745 91.799-89.285l0.003-0.125c-24.225-73.971-55.333-138.168-93.731-197.186l1.961 3.215c-36.747 55.808-67.9 120.033-90.216 188.257l-1.618 5.715zM0.050 262.116c-0.018 0.677-0.029 1.474-0.029 2.274 0 49.482 40.112 89.594 89.594 89.594 0.865 0 1.728-0.012 2.587-0.037l-0.126 0.003c0.656 0.017 1.429 0.027 2.205 0.027 49.482 0 89.594-40.112 89.594-89.594 0-0.797-0.010-1.592-0.031-2.384l0.002 0.117c-24.221-73.946-55.329-138.121-93.728-197.116l1.958 3.209c-36.819 55.791-68.033 119.992-90.405 188.2l-1.621 5.708zM619.338 262.116c-0.020 0.722-0.032 1.572-0.032 2.424 0 50.719 41.115 91.834 91.834 91.834s91.834-41.115 91.834-91.834c0-0.852-0.012-1.702-0.035-2.549l0.003 0.125c-24.221-73.946-55.329-138.121-93.728-197.116l1.958 3.209c-36.752 55.791-67.904 119.995-90.218 188.199l-1.616 5.709z" />
<glyph unicode="&#xe918;" glyph-name="legal" d="M880.951 479.11l-78.396 245.364c8.738 4.291 15.673 11.124 19.98 19.528l0.115 0.247 48.83 6.4c14.509 1.439 25.749 13.58 25.749 28.348 0 15.728-12.75 28.479-28.479 28.479-1.772 0-3.507-0.162-5.189-0.472l0.175 0.027-55.165-7.616c-6.984 4.925-15.669 7.872-25.044 7.872-13.596 0-25.746-6.199-33.774-15.925l-0.060-0.074-181.751-25.087c-8.694 15.399-21.935 27.36-37.883 34.233l-0.515 0.197v130.49c0 0 0 0 0 0 0 15.895-12.849 28.79-28.728 28.863h-3.527c0 0 0 0 0 0-15.953 0-28.891-12.914-28.927-28.86v-130.173c-22.941-9.925-39.979-29.74-45.902-53.919l-0.112-0.542-163.704-22.591c-7.925 7.942-18.881 12.854-30.986 12.854-16.32 0-30.555-8.932-38.082-22.173l-0.113-0.216-62.845-8.704c-13.931-1.986-24.524-13.835-24.524-28.159 0-15.7 12.727-28.428 28.428-28.428 1.377 0 2.731 0.098 4.056 0.287l-0.152-0.018 66.365 9.152 0.896-0.64-71.997-221.557h-59.709c26.79-53.789 81.393-90.096 144.476-90.096 6.143 0 12.204 0.344 18.168 1.014l-0.732-0.067c5.225-0.602 11.278-0.945 17.413-0.945 63.071 0 117.662 36.306 144.014 89.161l0.421 0.933h-73.084l-70.077 219.445c4.837 3.028 8.912 6.778 12.205 11.149l0.082 0.114 167.288 23.103c8.689-15.385 21.933-27.33 37.884-34.17l0.514-0.196v-651.872h-152.953c-15.935 0-28.863-8-28.863-17.919v-31.998c0-9.92 12.799-17.919 28.863-17.919h366.83c15.935 0 28.863 8 28.863 17.919v31.998c0 9.92-12.799 17.919-28.863 17.919h-152.761v651.872c22.995 9.945 40.054 29.845 45.904 54.114l0.11 0.539 175.544 24.191c4.78-5.253 10.777-9.314 17.551-11.744l0.304-0.095-79.164-243.188h-59.645c26.762-53.819 81.37-90.154 144.465-90.154 6.124 0 12.167 0.342 18.114 1.009l-0.731-0.067c5.234-0.604 11.298-0.949 17.444-0.949 63.098 0 117.708 36.337 144.047 89.227l0.421 0.934zM293.14 436.297h-135.865l68.477 210.742zM717.567 479.11l68.477 210.742 67.325-210.742z" />
<glyph unicode="&#xe919;" glyph-name="loan_origination" d="M668.23 783.485c0-12.032 0-24.767-0.384-37.504l33.92 20.095zM674.566 655.935l35.648-8.64 9.152 37.504c0.531 2.11 1.819 3.856 3.551 4.972l0.033 0.020c1.148 0.675 2.529 1.073 4.002 1.073 0.692 0 1.364-0.088 2.005-0.253l-0.056 0.012 35.776-8.704 9.024 37.504c0.516 1.766 1.604 3.227 3.045 4.207l0.027 0.017c-8.576 5.632-25.215 15.551-58.431 33.28l-50.879-30.015c-0.112-4.596-0.176-10.009-0.176-15.437 0-19.842 0.854-39.486 2.527-58.894l-0.175 2.524c1.089 0.578 2.381 0.918 3.752 0.918 0.415 0 0.823-0.031 1.221-0.091l-0.045 0.006zM1021.696 316.997l-27.199 45.824-114.622-67.839 27.071-45.888c2.321-3.935 6.063-6.822 10.505-7.974l0.119-0.026c1.322-0.369 2.84-0.581 4.408-0.581 3.242 0 6.272 0.906 8.851 2.479l-0.075-0.042 84.798 50.239c5.082 3.191 8.411 8.766 8.411 15.118 0 3.192-0.841 6.188-2.313 8.778l0.046-0.088zM788.803 711.998l-10.112-41.728c-0.9-3.582-4.092-6.192-7.894-6.192-0.697 0-1.373 0.088-2.018 0.253l0.056-0.012-35.584 8.576-9.152-37.376c-0.469-2.136-1.775-3.903-3.549-4.973l-0.035-0.019c-1.149-0.754-2.558-1.203-4.071-1.203-0.833 0-1.634 0.136-2.382 0.387l0.053-0.015-36.992 8.96 194.365-329.53 114.75 67.903zM931.649 388.484l-149.373 253.756c-0.67 1.167-1.065 2.565-1.065 4.056 0 2.991 1.591 5.611 3.973 7.059l0.037 0.021c1.189 0.738 2.631 1.176 4.176 1.176 2.968 0 5.559-1.617 6.94-4.017l0.021-0.039 149.309-253.692c0.687-1.178 1.092-2.594 1.092-4.104 0-3.002-1.603-5.63-3.999-7.075l-0.037-0.021c-1.174-0.706-2.591-1.123-4.105-1.123-2.957 0-5.543 1.592-6.946 3.966l-0.021 0.037zM194.253 588.48v-154.942h72.703v98.751c0 0.001 0 0.002 0 0.004 0 4.611 3.666 8.366 8.243 8.508h75.916c4.701 0 8.512-3.811 8.512-8.512v0-98.751h72.511v154.43l-119.23 96.831zM594.054 856.829h-556.855c-20.535 0-37.184-16.647-37.184-37.184v0-743.348c0.036-20.508 16.669-37.12 37.184-37.12 0 0 0 0 0 0h424.249c2.275 0.003 4.345 0.878 5.894 2.309l-0.006-0.005 161.214 153.597c1.658 1.536 2.692 3.725 2.692 6.155 0 0.086-0.001 0.172-0.004 0.257v-0.013 618.166c0 20.535-16.647 37.184-37.184 37.184v0zM120.463 606.337l186.749 152.253c1.457 1.229 3.356 1.976 5.43 1.976 0.342 0 0.679-0.020 1.010-0.060l-0.040 0.004h1.088c1.33-0.296 2.494-0.876 3.471-1.676l-0.015 0.012 187.069-152.509c1.93-1.561 3.154-3.929 3.154-6.584 0-2.053-0.732-3.934-1.949-5.398l0.011 0.014-27.391-33.664c-1.415-1.684-3.435-2.819-5.721-3.069l-0.039-0.003h-0.832c-2.045 0.013-3.92 0.735-5.392 1.933l0.016-0.013-17.919 14.592v-149.117c0-0.019 0-0.042 0-0.064 0-4.666-3.782-8.448-8.448-8.448-0.023 0-0.045 0-0.068 0h-254.713c-0.019 0-0.042 0-0.064 0-4.666 0-8.448 3.782-8.448 8.448 0 0.023 0 0.045 0 0.068v-0.003 149.757l-18.751-15.296c-1.455-1.175-3.328-1.886-5.366-1.886-2.649 0-5.018 1.201-6.591 3.088l-0.011 0.014-27.391 33.664c-1.206 1.45-1.938 3.332-1.938 5.384 0 2.654 1.224 5.022 3.138 6.571l0.016 0.012zM124.687 361.925h376.314c4.701 0 8.512-3.811 8.512-8.512s-3.811-8.512-8.512-8.512v0h-376.25c-4.701 0-8.512 3.811-8.512 8.512s3.811 8.512 8.512 8.512v0zM116.239 259.846c0.036 4.687 3.825 8.476 8.509 8.512h376.253c4.701 0 8.512-3.811 8.512-8.512s-3.811-8.512-8.512-8.512v0h-376.25c-4.701 0-8.512 3.811-8.512 8.512v0zM614.407 204.807l-156.158-148.925h-8.256v128.766c-0.001 0.068-0.001 0.149-0.001 0.229 0 11.709 9.141 21.282 20.675 21.975l0.061 0.003h143.677z" />
<glyph unicode="&#xe91a;" glyph-name="loan_servicing" d="M673.589 807.866h50.303v-68.223h-50.303zM673.589 684.54h50.303v-68.287h-50.303zM673.589 563.902h50.303v-68.287h-50.303zM633.59 495.615h-50.303v68.287h50.303zM633.59 616.253h-50.303v68.543h50.303zM633.59 739.643h-50.303v68.223h50.303zM665.078 357.505v91.135h67.327v-91.135h111.486c7.069 0 12.8 5.731 12.8 12.8v0 490.040c0 7.069-5.731 12.8-12.8 12.8v0h-290.363c-7.069 0-12.8-5.731-12.8-12.8v0-490.232c0-7.069 5.731-12.8 12.8-12.8v0zM814.195 495.615h-50.303v68.287h50.303zM814.195 616.253h-50.303v68.543h50.303zM814.195 739.643h-50.303v68.223h50.303zM117.758 321.474c-1.367 1.369-3.257 2.216-5.344 2.216s-3.977-0.847-5.344-2.216v0l-104.894-104.894c-1.335-1.371-2.158-3.245-2.158-5.312s0.823-3.941 2.16-5.314l245.754-245.69c1.364-1.35 3.24-2.184 5.312-2.184s3.948 0.834 5.313 2.185l104.893 104.893c1.365 1.357 2.21 3.236 2.21 5.312s-0.845 3.955-2.21 5.312v0zM257.468 41.287c-19.971 0-36.159 16.189-36.159 36.159s16.189 36.159 36.159 36.159c19.971 0 36.159-16.189 36.159-36.159v0c0-19.971-16.189-36.159-36.159-36.159v0zM858.226 208.836l-186.237-84.351h-308.155c-7.809-0.275-15.183-0.987-22.418-2.118l1.042 0.134-159.613 174.269c40.111 40.604 91.56 69.923 149.21 82.819l2.020 0.38c2.666 0.076 5.804 0.119 8.951 0.119 47.15 0 92.030-9.718 132.747-27.259l-2.181 0.836c15.372-7.186 33.237-12.048 52.043-13.595l0.564-0.037h132.286c24.944-0.954 44.802-21.406 44.802-46.495s-19.859-45.541-44.715-46.492l-0.087-0.003h-183.677c-4.666 0-8.448-3.782-8.448-8.448s3.782-8.448 8.448-8.448h183.677c30.193 0.033 55.441 21.158 61.807 49.431l0.080 0.424 92.415 18.56c1.847 0.36 3.433 1.298 4.601 2.615l0.007 0.009c28.933 30.414 59.822 58.3 92.712 83.723l1.879 1.396c14.278 13.277 33.481 21.426 54.588 21.426 3.702 0 7.345-0.251 10.914-0.736l-0.415 0.046c19.741-5.498 36.054-17.694 46.721-33.931l0.19-0.308zM573.495 539.711l-176.701 143.806c-0.579 0.476-1.301 0.798-2.092 0.894l-0.020 0.002h-0.192c-0.15 0.018-0.324 0.028-0.5 0.028-1.073 0-2.060-0.372-2.837-0.995l0.009 0.007-176.509-143.742c-1.038-0.828-1.697-2.092-1.697-3.51 0-1.104 0.4-2.115 1.062-2.896l-0.005 0.006 25.6-31.999c0.822-1.011 2.063-1.655 3.454-1.664h0.002c0.015 0 0.034 0 0.052 0 1.079 0 2.068 0.387 2.835 1.030l-0.007-0.006 23.744 19.2v-125.566h249.596v125.182l22.656-18.496c0.774-0.657 1.785-1.057 2.89-1.057 1.418 0 2.683 0.659 3.503 1.687l0.007 0.009 25.6 31.999c0.674 0.771 1.085 1.787 1.085 2.899 0 1.421-0.672 2.686-1.715 3.494l-0.010 0.008zM425.145 404.289h-61.951v103.934h62.527zM543.991 510.719l-147.198 119.998c-0.783 0.594-1.774 0.952-2.848 0.952s-2.065-0.358-2.86-0.961l0.012 0.009-147.134-119.998-19.968 24.832 170.045 138.75 170.365-138.75zM481.144 806.394l-20.352 15.936c-3.321 2.824-5.413 7.005-5.413 11.675 0 4.211 1.701 8.024 4.454 10.79l-0.001-0.001 18.176 18.368 0.704 0.832c-3.251 9.531-7.299 17.782-12.237 25.403l0.269-0.443h-1.216l-25.6-2.752c-0.5-0.058-1.079-0.091-1.667-0.091-8.483 0-15.36 6.877-15.36 15.36 0 0.099 0.001 0.199 0.003 0.298v-0.015 25.6c0 0.448 0 0.832 0 1.216-7.514 3.925-16.231 7.143-25.385 9.206l-0.727 0.138c-0.337-0.23-0.631-0.483-0.893-0.765l-0.003-0.003-16.512-20.096c-2.827-3.485-7.109-5.694-11.907-5.694-4.191 0-7.988 1.685-10.751 4.415l0.002-0.001-18.304 18.24-1.024 0.384c-9.509-3.267-17.737-7.314-25.343-12.239l0.447 0.271c-0.014-0.182-0.023-0.394-0.023-0.608s0.008-0.426 0.024-0.636l-0.002 0.028 2.688-25.6c0.053-0.48 0.084-1.037 0.084-1.6 0-8.445-6.815-15.298-15.246-15.36h-25.606c-0.448 0-0.768 0-1.216 0-3.816-7.505-6.968-16.223-9.011-25.36l-0.141-0.752s0.448-0.64 0.832-0.896l20.032-16.256c3.503-2.815 5.725-7.098 5.725-11.901 0-4.198-1.699-8-4.446-10.755v0l-18.176-18.368-0.96-0.768c3.193-9.525 7.224-17.78 12.165-25.389l-0.261 0.429h1.28l25.6 2.752c0.499 0.058 1.078 0.091 1.664 0.091 8.412 0 15.232-6.82 15.232-15.232 0-0.010 0-0.019 0-0.029v0.001-25.6c-0.017-0.182-0.027-0.394-0.027-0.608s0.010-0.426 0.029-0.635l-0.002 0.027c7.518-3.873 16.242-7.029 25.4-9.022l0.712-0.13 0.896 0.768 16.192 20.096c2.85 3.47 7.141 5.667 11.946 5.667 4.194 0 7.997-1.674 10.777-4.39l-0.003 0.003 18.304-18.24 1.344-0.96c9.531 3.251 17.782 7.299 25.403 12.237l-0.443-0.269c0.014 0.182 0.023 0.394 0.023 0.608s-0.008 0.426-0.024 0.636l0.002-0.028-2.752 25.6c-0.053 0.48-0.084 1.037-0.084 1.6 0 8.445 6.815 15.298 15.246 15.36h25.606c0.448 0 0.832 0 1.28 0 3.782 7.496 6.932 16.211 9.004 25.336l0.148 0.776c-0.191 0.537-0.386 0.98-0.606 1.408l0.030-0.064zM424.953 809.082c-8.211-21.156-28.407-35.881-52.040-35.881-30.751 0-55.679 24.929-55.679 55.679 0 28.794 21.856 52.481 49.882 55.381l0.239 0.020c1.873 0.225 4.043 0.354 6.242 0.354 30.504 0 55.231-24.728 55.231-55.231 0-7.317-1.423-14.302-4.007-20.692l0.132 0.371z" />
<glyph unicode="&#xe91b;" glyph-name="meet_us" d="M219.98 512.886h72.382c11.417 0 20.671-9.255 20.671-20.671v-72.382c0-11.417-9.255-20.671-20.671-20.671h-72.382c-11.417 0-20.671 9.255-20.671 20.671v72.382c0 11.417 9.255 20.671 20.671 20.671zM390.535 512.886h72.382c11.417 0 20.671-9.255 20.671-20.671v-72.382c0-11.417-9.255-20.671-20.671-20.671h-72.382c-11.417 0-20.671 9.255-20.671 20.671v72.382c0 11.417 9.255 20.671 20.671 20.671zM561.089 512.886h72.382c11.417 0 20.671-9.255 20.671-20.671v-72.382c0-11.417-9.255-20.671-20.671-20.671h-72.382c-11.417 0-20.671 9.255-20.671 20.671v72.382c0 11.417 9.255 20.671 20.671 20.671zM731.644 512.886h72.382c11.417 0 20.671-9.255 20.671-20.671v-72.382c0-11.417-9.255-20.671-20.671-20.671h-72.382c-11.417 0-20.671 9.255-20.671 20.671v72.382c0 11.417 9.255 20.671 20.671 20.671zM219.98 342.331h72.382c11.417 0 20.671-9.255 20.671-20.671v-72.382c0-11.417-9.255-20.671-20.671-20.671h-72.382c-11.417 0-20.671 9.255-20.671 20.671v72.382c0 11.417 9.255 20.671 20.671 20.671zM561.089 342.331h72.382c11.417 0 20.671-9.255 20.671-20.671v-72.382c0-11.417-9.255-20.671-20.671-20.671h-72.382c-11.417 0-20.671 9.255-20.671 20.671v72.382c0 11.417 9.255 20.671 20.671 20.671zM731.644 342.331h72.382c11.417 0 20.671-9.255 20.671-20.671v-72.382c0-11.417-9.255-20.671-20.671-20.671h-72.382c-11.417 0-20.671 9.255-20.671 20.671v72.382c0 11.417 9.255 20.671 20.671 20.671zM219.98 166.081h72.382c11.417 0 20.671-9.255 20.671-20.671v-72.382c0-11.417-9.255-20.671-20.671-20.671h-72.382c-11.417 0-20.671 9.255-20.671 20.671v72.382c0 11.417 9.255 20.671 20.671 20.671zM390.535 166.081h72.382c11.417 0 20.671-9.255 20.671-20.671v-72.382c0-11.417-9.255-20.671-20.671-20.671h-72.382c-11.417 0-20.671 9.255-20.671 20.671v72.382c0 11.417 9.255 20.671 20.671 20.671zM561.089 166.081h72.382c11.417 0 20.671-9.255 20.671-20.671v-72.382c0-11.417-9.255-20.671-20.671-20.671h-72.382c-11.417 0-20.671 9.255-20.671 20.671v72.382c0 11.417 9.255 20.671 20.671 20.671zM390.535 343.035h72.382c11.417 0 20.671-9.255 20.671-20.671v-72.382c0-11.417-9.255-20.671-20.671-20.671h-72.382c-11.417 0-20.671 9.255-20.671 20.671v72.382c0 11.417 9.255 20.671 20.671 20.671zM264.331 959.975c20.606 0 37.311-16.704 37.311-37.311v-169.147c0-20.606-16.704-37.311-37.311-37.311s-37.311 16.704-37.311 37.311v169.147c0 20.606 16.704 37.311 37.311 37.311zM915.894 847.147h-807.782c0 0 0 0-0.001 0-40.011 0-72.446-32.435-72.446-72.446 0-0.112 0-0.225 0.001-0.337v0.017-765.927c0-40.011 32.435-72.446 72.446-72.446h807.782c40.011 0 72.446 32.435 72.446 72.446v0 765.927c0 0.095 0.001 0.207 0.001 0.32 0 40.011-32.435 72.446-72.446 72.446 0 0 0 0-0.001 0v0zM742.396 811.628c31.811 0 57.598-25.787 57.598-57.598s-25.787-57.598-57.598-57.598c-31.811 0-57.598 25.787-57.598 57.598v0c0 31.811 25.787 57.598 57.598 57.598v0zM264.459 811.628c31.811 0 57.598-25.787 57.598-57.598s-25.787-57.598-57.598-57.598c-31.811 0-57.598 25.787-57.598 57.598v0c0 31.788 25.751 57.562 57.531 57.598h0.003zM931.509 30.853c0-22.833-18.509-41.343-41.343-41.343v0h-747.624c-27.604 0-49.982 22.378-49.982 49.982v0 536.111h838.885zM742.268 959.975c20.606 0 37.311-16.704 37.311-37.311v-169.147c0-20.606-16.704-37.311-37.311-37.311s-37.311 16.704-37.311 37.311v169.147c0 20.606 16.704 37.311 37.311 37.311z" />
<glyph unicode="&#xe91c;" glyph-name="municipalities" d="M888.163-2.53h-752.348v103.419h752.348zM888.163 490.502h-752.348v95.995l376.174 210.998 376.174-210.678zM286.784 134.423h-97.467v322.608h97.467zM469.431 134.423h-97.467v322.608h97.467zM652.014 134.423h-97.467v322.608h97.467zM834.661 134.423h-97.467v322.608h97.467zM923.873-63.967h-823.768v99.963h823.768zM532.084 782.84h-40.19v177.143h185.015l-40.062-89.596h-104.763z" />
<glyph unicode="&#xe91d;" glyph-name="npn" d="M591.37 716.835c-38.378 39.21-75.541 79.571-116.542 115.647-49.806 44.991-116.135 72.519-188.894 72.519-98.766 0-185.686-50.725-236.125-127.546l-0.659-1.069c-30.741-43.834-49.125-98.288-49.125-157.036 0-52.187 14.508-100.986 39.71-142.583l-0.691 1.228c13.256-21.637 26.248-40.088 40.274-57.677l-0.873 1.133c21.94 24.946 134.964 137.202 161.701 164.131q66.33 66.522 132.917 132.597c9.211 9.211 17.334 11.897 28.336 0q41.321-43.751 85.264-85.136c10.735-11.171 23.622-20.183 38.006-26.382l0.757-0.291c5.776-1.824 12.419-2.874 19.306-2.874 36.598 0 66.267 29.668 66.267 66.267 0 18.407-7.505 35.061-19.621 47.069l-0.005 0.005zM1018.648 665.28c-20.87 136.298-137.285 239.485-277.8 239.485-19.121 0-37.796-1.911-55.843-5.552l1.799 0.303c-55.274-9.26-103.525-34.378-141.201-70.452l0.097 0.092c6.277-9.289 12.395-17.295 18.926-24.938l-0.313 0.376c19.189-20.149 40.297-38.698 58.783-59.486 20.006-19.226 32.435-46.208 32.435-76.094 0-30.566-13.001-58.094-33.775-77.358l-0.068-0.062c-19.384-20.139-46.571-32.648-76.68-32.648-29.606 0-56.387 12.095-75.672 31.614l-0.010 0.011c-21.172 19.509-40.937 40.489-61.341 60.766s-20.66 20.404-39.658 0.895c-23.603-24.178-45.734-49.764-69.721-73.494-38.954-38.378-150.443-146.413-189.909-185.495v0.576c-7.937-9.573-12.751-21.983-12.751-35.517 0-10.995 3.177-21.247 8.664-29.889l-0.135 0.228c15.415-20.085 48.613-29.359 54.625-23.091l30.127 25.586q99.464 99.784 198.928 199.759c10.682 10.81 22.195 19.765 35.82 5.501s4.797-25.586-6.396-36.076l-208.586-209.162c-7.947-8.793-12.809-20.505-12.809-33.353 0-13.311 5.22-25.404 13.724-34.342l-0.020 0.021c8.571-10.046 21.243-16.376 35.394-16.376 11.37 0 21.784 4.086 29.856 10.869l-0.071-0.058 216.070 212.552c22.707 16.695 26.353 16.055 41.96 0 10.746-11.258-4.477-27.057-9.403-31.534-53.858-52.322-167.841-158.502-200.463-188.437-11.273-10.127-18.331-24.751-18.331-41.025 0-14.607 5.687-27.885 14.967-37.743l-0.026 0.028c8.67-9.072 20.866-14.712 34.379-14.712 16.154 0 30.426 8.059 39.013 20.377l0.102 0.155c23.027 22.963 203.277 199.567 282.592 277.283 10.813 10.657 25.668 17.238 42.061 17.238 13.934 0 26.758-4.755 36.937-12.732l-0.131 0.099 100.231-89.549 78.548 82.066c15.634 18.209 31.216 38.28 45.804 59.101l1.657 2.497c26.897 39.325 42.951 87.915 42.951 140.257 0 18.217-1.945 35.98-5.638 53.091l0.298-1.648zM819.145 261.796v0c-8.083-7.99-19.201-12.927-31.472-12.927-12.556 0-23.905 5.168-32.036 13.493l-0.009 0.009-52.003 53.282c-8.18 8.115-13.245 19.361-13.245 31.79s5.064 23.675 13.242 31.787l0.003 0.003c8.106 8.126 19.316 13.154 31.7 13.154 12.667 0 24.105-5.26 32.251-13.715l0.013-0.014 52.258-53.282c7.972-8.080 12.897-19.185 12.897-31.441 0-12.604-5.208-23.991-13.589-32.128l-0.011-0.011zM740.278 171.032v0c-8.133-7.902-19.247-12.774-31.499-12.774-12.54 0-23.887 5.104-32.079 13.347l-0.002 0.002-52.322 53.282c-7.861 8.115-12.706 19.193-12.706 31.402 0 12.497 5.076 23.809 13.279 31.985l0.001 0.001c8.086 8.010 19.218 12.959 31.504 12.959 12.572 0 23.933-5.181 32.066-13.525l0.009-0.009 52.322-53.282c7.953-8.076 12.863-19.168 12.863-31.407 0-12.525-5.142-23.848-13.431-31.974l-0.007-0.007zM651.24 84.553v0c-8.086-8.010-19.218-12.959-31.504-12.959-12.572 0-23.933 5.181-32.066 13.525l-0.009 0.009-52.322 53.218c-8.010 8.086-12.959 19.218-12.959 31.504 0 12.572 5.181 23.933 13.525 32.066l0.009 0.009c8.086 8.010 19.218 12.959 31.504 12.959 12.572 0 23.933-5.181 32.066-13.525l0.009-0.009 52.322-53.218c7.902-8.133 12.774-19.247 12.774-31.499 0-12.54-5.104-23.887-13.347-32.079l-0.002-0.002zM562.139 3.958v0c-8.086-8.010-19.218-12.959-31.504-12.959-12.572 0-23.933 5.181-32.066 13.525l-0.009 0.009-52.258 53.474c-7.937 8.13-12.832 19.259-12.832 31.532 0 12.528 5.101 23.865 13.34 32.046l0.003 0.003c8.086 8.010 19.218 12.959 31.504 12.959 12.572 0 23.933-5.181 32.066-13.525l0.009-0.009 52.322-53.218c8.087-8.1 13.089-19.283 13.089-31.635 0-12.636-5.234-24.048-13.652-32.189l-0.012-0.012z" />
<glyph unicode="&#xe91e;" glyph-name="private_lending" d="M725.934 802.26c-7.127 1.763-15.309 2.775-23.727 2.775-20.16 0-38.964-5.801-54.836-15.823l0.424 0.25c-31.997-19.065-59.649-39.035-85.406-61.149l0.802 0.672s-3.072-3.392-9.28-9.984c21.413-9.468 39.577-22.61 54.486-38.797l0.103-0.113c2.428 1.827 5.182 3.473 8.105 4.813l0.279 0.115c29.311 12.799 43.966 29.311 61.885 27.711 21.4-1.93 40.83-8.969 57.499-19.876l-0.478 0.293c5.27-4.556 8.584-11.25 8.584-18.719s-3.314-14.163-8.553-18.693l-0.031-0.026c-11.391-12.799-42.366-14.655-83.196-16.255-5.76 0-11.135-0.704-16.255-1.344-21.555-0.551-40.976-9.255-55.383-23.128l0.026 0.025c-6.4-9.792-8.192-37.438 11.391-42.366 14.886-2.863 32.006-4.501 49.51-4.501 3.182 0 6.351 0.054 9.507 0.162l-0.459-0.012 12.799-0.512c26.672-6.012 57.304-9.457 88.741-9.457 11.765 0 23.419 0.483 34.94 1.429l-1.511-0.1c17.766 3.194 33.606 8.28 48.446 15.161l-1.216-0.506c25.096 19.886 55.22 34.609 88.114 42.021l1.482 0.281v148.217c-39.038 6.4-55.357 9.792-94.459 17.919-26.903 7.009-61.577 13.833-96.826 18.873l-5.505 0.646zM949.411 782.741h62.781c6.504 0 11.775-5.272 11.775-11.775v-158.84c0-6.504-5.272-11.775-11.775-11.775h-62.781c-6.504 0-11.775 5.272-11.775 11.775v158.84c0 6.504 5.272 11.775 11.775 11.775zM458.363 602.398c0.125-11.206 8.729-20.365 19.69-21.369l0.085-0.006v42.686c-10.984-1.094-19.526-10.167-19.775-21.286v-0.025zM517.368 538.081c-0.245 11.124-8.754 20.187-19.618 21.303l-0.093 0.008v-42.622c10.957 1.124 19.466 10.187 19.711 21.287v0.024zM489.849 426.086c73.472 0.037 134.165 54.707 143.656 125.587l0.081 0.743-14.783 0.448c-9.202-63.783-63.49-112.248-129.097-112.248-71.997 0-130.362 58.365-130.362 130.362s58.365 130.362 130.362 130.362c44.338 0 83.507-22.135 107.057-55.957l0.281-0.426c3.768 1.582 8.578 3.241 13.5 4.632l0.963 0.232c-3.903 5.835-7.775 10.885-11.936 15.676l0.161-0.189c-26.744 31.106-66.143 50.686-110.114 50.686-80.055 0-144.953-64.898-144.953-144.953s64.898-144.953 144.953-144.953c0.081 0 0.162 0 0.244 0h-0.013zM588.020 640.86c-22.107 30.773-57.795 50.58-98.11 50.58-66.519 0-120.442-53.923-120.442-120.442s53.923-120.442 120.442-120.442c60.346 0 110.327 44.381 119.082 102.283l0.083 0.665c-7.54 0.634-14.453 1.835-21.146 3.583l0.859-0.191c-11.637 2.913-20.845 11.276-24.879 22.153l-0.080 0.246c-2.034 5.403-3.211 11.646-3.211 18.166 0 9.811 2.666 18.999 7.314 26.88l-0.135-0.247c5.288 7.081 12.068 12.755 19.901 16.623l0.322 0.144zM536.823 538.081c-0.336-21.963-17.513-39.809-39.17-41.208l-0.124-0.006v-12.799h-19.199v12.799c-21.261 2.433-37.828 19.616-39.287 40.949l-0.007 0.137h19.199c1.131-10.718 9.23-19.252 19.634-21.035l0.141-0.020v44.222c-21.915 1.154-39.253 19.184-39.294 41.274v0.004c0.336 21.963 17.513 39.809 39.17 41.208l0.124 0.006v12.095h19.199v-12.223c21.261-2.433 37.828-19.616 39.287-40.949l0.007-0.137h-19.135c-1.124 10.7-9.193 19.226-19.569 21.034l-0.142 0.021v-44.158c21.781-1.405 38.958-19.251 39.294-41.181v-0.033zM624.051 355.177h-5.312c-13.924-1.44-26.091-8-34.767-17.737l-0.047-0.054-57.597-65.085-90.364-17.727c-26.306 16.669-56.861 32.717-88.714 46.313l-4.274 1.621c-10.24 5.888 10.367 2.112 10.048 2.112l47.294-11.263c6.671-1.48 14.333-2.328 22.194-2.328 5.106 0 10.128 0.358 15.042 1.050l-0.566-0.065c13.904 1.681 26.448 4.466 38.504 8.338l-1.45-0.402c19.519 4.032 43.582 16.255 41.854 33.854-0.832 8.128-3.776 19.199-16.959 20.351l-70.141 1.728-79.868 35.134c-5.833 2.612-12.623 4.217-19.766 4.414l-0.073 0.002c-27.504-0.368-54.144-2.148-80.371-5.275l3.575 0.347c-26.845-2.442-50.972-12.433-70.697-27.808l0.3 0.225-31.358-23.999-51.198-46.206c-1.424-0.995-2.344-2.627-2.344-4.473 0-1.178 0.375-2.269 1.011-3.16l-0.011 0.017 78.908-109.819c1.070-1.471 2.787-2.417 4.724-2.417 1.224 0 2.359 0.377 3.296 1.022l-0.020-0.013 24.447 16.319c5.741 3.603 12.718 5.74 20.195 5.74 2.89 0 5.704-0.319 8.412-0.924l-0.256 0.048 172.792-29.759c0.814-0.096 1.757-0.15 2.712-0.15 1.805 0 3.564 0.195 5.258 0.564l-0.162-0.030 140.793 42.686c1.913 0.56 3.514 1.684 4.656 3.178l0.016 0.022 74.62 112.315c2.675 3.274 4.296 7.5 4.296 12.103 0 10.403-8.275 18.875-18.602 19.19l-0.029 0.001zM5.367 249.126l53.649 38.846c5.783 4.187 13.865 2.894 18.052-2.889l97.584-134.772c4.187-5.783 2.894-13.865-2.889-18.052l-53.649-38.846c-5.783-4.187-13.865-2.894-18.052 2.889l-97.584 134.772c-4.187 5.783-2.894 13.865 2.889 18.052z" />
<glyph unicode="&#xe91f;" glyph-name="support" d="M157.843 334.011c46.61-132.774 162.248-230.015 302.738-249.371l1.956-0.221c9.52 17.951 28.089 29.97 49.465 29.97 30.821 0 55.806-24.985 55.806-55.806s-24.985-55.806-55.806-55.806c-23.874 0-44.248 14.993-52.218 36.076l-0.127 0.384c-166.103 21.529-300.393 137.442-348.437 291.416l-0.8 2.975h-57.022c-29.494 0.072-53.375 23.998-53.375 53.502 0 0.090 0 0.18 0.001 0.27v-0.014 136.7c0.109 29.434 23.94 53.265 53.364 53.374h38.409c54.613 183.905 222.111 315.749 420.402 315.749s365.788-131.844 419.61-312.651l0.792-3.098h38.399c29.269-0.325 52.883-24.074 52.99-53.364v-136.71c-0.073-29.448-23.926-53.301-53.367-53.374h-104.452c12.818 36.187 20.223 77.919 20.223 121.383 0 206.768-167.62 374.388-374.388 374.388s-374.388-167.62-374.388-374.388c0-43.463 7.406-85.196 21.025-124.006l-0.802 2.624zM512.008 766.445c-171.6 0-310.71-139.11-310.71-310.71v0c0.111-171.622 139.264-310.707 310.902-310.707 38.744 0 75.832 7.087 110.039 20.034l-2.139-0.71 4.352 1.664 2.752 1.152 4.16 1.728 2.688 1.152 3.968 1.728 3.264 1.472 3.648 1.728 3.136 1.472 3.392 1.728 3.456 1.728 3.2 1.728 3.52 1.92 3.008 1.664 3.712 2.112 2.56 1.536h0.384l146.299-39.167-39.167 146.299v0.448l1.408 2.368 2.496 4.416 1.152 2.048 2.176 3.968 1.408 2.752 2.048 3.968 1.536 3.008 1.792 3.712 1.536 3.328 1.472 3.264 1.664 3.776 1.344 3.264 1.536 3.648 1.28 3.264 1.536 4.096 0.96 2.624 1.664 4.736 0.768 2.176c0.576 1.728 1.088 3.392 1.664 5.056l0.64 2.24c0.576 1.792 1.088 3.584 1.6 5.376l0.512 1.728 1.536 5.696 0.448 1.792c0.512 1.92 0.96 3.84 1.408 5.824l0.384 1.536 1.344 6.080 0.32 1.472c0.384 2.176 0.832 4.288 1.216 6.4v0.96q0.704 3.456 1.152 6.912v0.704l0.96 6.976v0.832l0.768 6.976v0.832c0 2.432 0.448 4.8 0.576 7.232v0.64c0 2.432 0.32 4.928 0.448 7.488v0.384c0 2.496 0 5.056 0 7.552v0 0c0 2.624 0 5.248 0 7.936v0c0 0.077 0 0.168 0 0.26 0 171.060-138.236 309.834-309.091 310.706h-0.083zM369.485 401.656c-0.019 0-0.042 0-0.064 0-29.761 0-53.886 24.125-53.886 53.886s24.125 53.886 53.886 53.886c29.761 0 53.886-24.125 53.886-53.886v0c-0.109-29.655-24.156-53.658-53.819-53.694h-0.003zM512.008 401.848c-0.019 0-0.042 0-0.064 0-29.761 0-53.886 24.125-53.886 53.886s24.125 53.886 53.886 53.886c29.761 0 53.886-24.125 53.886-53.886v0c0-0.019 0-0.042 0-0.064 0-29.725-24.097-53.822-53.822-53.822 0 0 0 0 0 0v0zM654.531 401.848c-29.761 0-53.886 24.125-53.886 53.886s24.125 53.886 53.886 53.886c29.761 0 53.886-24.125 53.886-53.886v0c0-29.761-24.125-53.886-53.886-53.886v0z" />
<glyph unicode="&#xe920;" glyph-name="trust_accounting" d="M513.408 367.392c56.55 0 102.393 45.843 102.393 102.393s-45.843 102.393-102.393 102.393c-56.55 0-102.393-45.843-102.393-102.393v0c0-56.55 45.843-102.393 102.393-102.393v0zM579.452 348.641h-131.959c-77.757 0-140.791-63.034-140.791-140.791v0-81.083h62.588c0 0.512-0.512 0.832-0.512 1.344v109.689c0 6.362 5.158 11.519 11.519 11.519s11.519-5.158 11.519-11.519v0-109.753c0-0.512-0.448-0.832-0.576-1.344h245.68c0 0.512-0.512 0.832-0.512 1.344v109.753c0 6.362 5.158 11.519 11.519 11.519s11.519-5.158 11.519-11.519v0-109.753c0-0.512-0.512-0.832-0.576-1.344h61.18v81.211c-0.036 77.662-62.947 140.618-140.589 140.727h-0.010zM843.819 423.709c49.167 0.182 88.954 40.081 88.954 89.273 0 49.305-39.969 89.274-89.274 89.274s-89.274-39.969-89.274-89.274c0-0.022 0-0.045 0-0.067v0.003c0.218-49.316 40.247-89.21 89.593-89.21 0 0 0.001 0 0.001 0v0zM901.351 407.39h-115.193c-49.42-0.064-91.993-29.308-111.422-71.425l-0.315-0.762c37.359-27.038 61.382-70.509 61.382-119.59 0-0.591-0.003-1.182-0.010-1.771l0.001 0.090h215.538c0 0.448-0.512 0.768-0.512 1.216v95.61c0 5.549 4.499 10.047 10.047 10.047s10.047-4.499 10.047-10.047v0-95.61c0-0.448-0.384-0.768-0.448-1.216h53.501v70.779c-0.073 67.703-54.918 122.571-122.605 122.68h-0.011zM180.181 423.709c-49.167 0.182-88.954 40.081-88.954 89.273 0 49.305 39.969 89.274 89.274 89.274s89.274-39.969 89.274-89.274c0-0.022 0-0.045 0-0.067v0.003c-0.218-49.316-40.247-89.21-89.593-89.21 0 0-0.001 0-0.001 0v0zM122.649 407.39h115.193c49.344-0.143 91.828-29.365 111.23-71.425l0.315-0.762c-37.359-27.038-61.382-70.509-61.382-119.59 0-0.591 0.003-1.182 0.010-1.771l-0.001 0.090h-215.538c0 0.448 0.512 0.768 0.512 1.216v95.61c0 5.549-4.499 10.047-10.047 10.047s-10.047-4.499-10.047-10.047v0-95.61c0-0.448 0.384-0.768 0.448-1.216h-53.309v70.779c0.073 67.703 54.918 122.571 122.605 122.68h0.011zM270.416 608.017c-0.035 0-0.076 0-0.118 0-8.376 0-15.167 6.791-15.167 15.167 0 3.097 0.928 5.976 2.521 8.376l-0.035-0.056c21.437 32.224 47.729 59.311 78.16 80.96l0.939 0.635c2.43 1.737 5.462 2.777 8.735 2.777 8.355 0 15.128-6.774 15.128-15.128 0-5.081-2.505-9.576-6.347-12.32l-0.046-0.031c-28.211-20.080-51.864-44.466-70.531-72.459l-0.632-1.008c-2.733-4.146-7.348-6.858-12.599-6.912h-0.008zM756.464 608.017c-0.037 0-0.081-0.001-0.125-0.001-5.264 0-9.903 2.67-12.639 6.73l-0.034 0.054c-50.087 75.272-134.569 124.203-230.481 124.203-34.244 0-67.031-6.238-97.287-17.638l1.901 0.628c-1.417-0.483-3.050-0.762-4.748-0.762-8.376 0-15.167 6.791-15.167 15.167 0 6.28 3.816 11.667 9.255 13.972l0.099 0.037c31.494 11.957 67.909 18.881 105.941 18.881 106.431 0 200.199-54.217 255.191-136.541l0.701-1.116c1.558-2.344 2.486-5.224 2.486-8.319 0-8.376-6.791-15.167-15.167-15.167-0.041 0-0.083 0-0.124 0h0.006z" />
<glyph unicode="&#xe921;" glyph-name="keyboard_arrow_left" d="M828.006 56l-120-120-512 512 512 512 120-120-392-392z" />
<glyph unicode="&#xe922;" glyph-name="keyboard_arrow_right" d="M195.994 56l392 392-392 392 120 120 512-512-512-512z" />
<glyph unicode="&#xe923;" glyph-name="keyboard_arrow_up" d="M120 131.994l-120 120 512 512 512-512-120-120-392 392z" />
<glyph unicode="&#xe924;" glyph-name="home" d="M1024 367.998l-192 192v288h-128v-160l-192 192-512-512v-32h128v-320h320v192h128v-192h320v320h128z" />
<glyph unicode="&#xe925;" glyph-name="canada" d="M489.141-63.968l11.434 219.276c0.016 0.332 0.026 0.721 0.026 1.111 0 13.332-10.807 24.138-24.138 24.138-1.445 0-2.861-0.127-4.237-0.371l0.145 0.021-218.26-38.367 29.474 81.307c0.649 1.702 1.024 3.67 1.024 5.726 0 5.162-2.368 9.77-6.077 12.799l-0.030 0.024-239.095 193.614 53.866 25.154c5.637 2.709 9.46 8.375 9.46 14.933 0 1.838-0.3 3.606-0.854 5.257l0.034-0.117-47.26 145.337 137.715-29.22c1.013-0.221 2.177-0.348 3.371-0.348 6.768 0 12.585 4.071 15.136 9.897l0.041 0.106 26.679 62.759 107.479-115.355c3.016-3.177 7.27-5.153 11.986-5.153 9.122 0 16.515 7.395 16.515 16.515 0 1.104-0.108 2.182-0.315 3.225l0.017-0.105-51.833 267.298 83.086-48.022c2.391-1.425 5.273-2.267 8.351-2.267 6.428 0 11.999 3.672 14.728 9.034l0.043 0.094 84.356 165.664 84.356-165.664c2.772-5.455 8.343-9.128 14.771-9.128 3.078 0 5.96 0.842 8.427 2.309l-0.076-0.042 83.086 48.022-51.833-267.298c-0.189-0.938-0.297-2.016-0.297-3.12 0-9.122 7.395-16.515 16.515-16.515 4.716 0 8.97 1.976 11.979 5.146l0.007 0.007 107.479 115.355 26.679-62.759c2.593-5.933 8.41-10.003 15.178-10.003 1.194 0 2.358 0.127 3.48 0.367l-0.108-0.019 137.715 29.22-47.26-145.337c-0.52-1.535-0.82-3.303-0.82-5.141 0-6.558 3.822-12.223 9.361-14.89l0.099-0.043 53.866-25.154-239.095-193.614c-3.738-3.052-6.106-7.661-6.106-12.823 0-2.056 0.376-4.024 1.062-5.84l-0.038 0.114 29.474-81.307-218.26 38.367c-1.23 0.222-2.646 0.349-4.091 0.349-13.332 0-24.138-10.807-24.138-24.138 0-0.391 0.009-0.78 0.028-1.166l-0.002 0.055 11.434-219.276z" />
<glyph unicode="&#xe926;" glyph-name="checkmark" d="M684.796 665.595l-233.594-262.394-121.597 108.797-79.998-92.798 118.397-105.597 89.598-83.198 316.792 351.992zM512-63.988c-281.593 0-511.988 230.395-511.988 511.988s230.395 511.988 511.988 511.988 511.988-230.395 511.988-511.988-230.395-511.988-511.988-511.988zM512 876.79c-236.794 0-428.79-191.995-428.79-428.79s191.995-428.79 428.79-428.79 428.79 191.995 428.79 428.79-191.995 428.79-428.79 428.79z" />
<glyph unicode="&#xe927;" glyph-name="clock" d="M728.333 231.666l40.863 67.304-230.756 139.415v266.811h-76.919v-307.674zM512 959.989q211.526 0 361.758-150.232t150.232-361.758-150.232-361.758-361.758-150.232-361.758 150.232-150.232 361.758 150.232 361.758 361.758 150.232z" />
<glyph unicode="&#xe928;" glyph-name="document-import" d="M601.334 263.259h-291.366c-10.103 0-18.297 8.18-18.297 18.281s8.195 18.282 18.297 18.282h254.802l36.564-36.564zM574.995 392.513l-36.579-36.579h-228.447c-5.051 0-9.63 2.045-12.941 5.357s-5.357 7.89-5.357 12.941c0 10.088 8.195 18.281 18.297 18.281h265.025zM667.671 485.189l-36.564-36.564h-321.138c-5.051 0-9.63 2.045-12.941 5.357-3.312 3.297-5.357 7.875-5.357 12.926 0 10.103 8.195 18.281 18.297 18.281h357.702zM1024 722.975c0 59.21-48.176 107.387-107.403 107.403v0.015l-630.892-0.015c-59.225 0-107.418-48.192-107.418-107.403l0.015-531.669h-178.271v-18.297c0-59.195 48.176-107.373 107.418-107.388v-0.015l630.892 0.015c53.594 0 98.17 39.479 106.151 90.875-6.349 21.456-18.8 40.333-35.312 54.601v-37.129c0-28.796-17.305-54.143-42.027-65.467-2.579-1.19-5.235-2.213-7.966-3.083-6.715-2.121-13.841-3.266-21.227-3.22-18.8 0.091-36.411 7.462-49.702 20.738-13.384 13.399-20.769 31.177-20.769 50.069v18.297h-452.621v530.723c0 39.173 32.047 71.968 71.22 71.769 18.785-0.091 36.396-7.462 49.702-20.753 13.384-13.384 20.754-31.161 20.754-50.069v-18.281h452.636v-276.089c12.621-5.234 24.859-11.385 36.579-18.388l-0.015 294.479h178.255v18.281zM632.481 154.727c3.311-19.426 11.919-37.556 25.164-52.526 0 0 0.015 0 0.015-0.016l-550.195 0.016c-32.764 0-60.4 22.31-68.473 52.526h593.489zM391.566 741.273c-3.311 19.426-11.934 37.541-25.179 52.526v0.016l550.195-0.016c32.764 0 60.4-22.31 68.458-52.526h-593.474zM339.921 541.307h218.41c26.643 0 48.241 21.598 48.241 48.241v0c0 26.643-21.598 48.241-48.241 48.241h-218.41c-26.643 0-48.24-21.598-48.24-48.241v0c0-26.643 21.598-48.241 48.24-48.241zM588.286 341.063l133.080 133.080v-72.356h13.541l0.993-0.144c55.261-8.007 106.015-35.705 142.908-77.993 37.255-42.701 57.771-97.465 57.771-154.204 0-16.874-1.799-33.713-5.347-50.049-1.878-8.648-9.181-14.46-17.783-14.46-0.692 0-1.394 0.037-2.101 0.114-9.492 1.031-16.363 8.721-16.337 18.273l0.001 0.445c0 88.843-72.273 161.122-161.115 161.122h-12.531v-76.91l-133.080 133.080zM767.153 108.504v-11.049l-7.966 7.966c2.732 0.87 5.387 1.892 7.966 3.083z" />
<glyph unicode="&#xe929;" glyph-name="geo-mapping" d="M264.053 163.282l-114.917-195.437h-115.516c-25.433 0-39.351 18.807-31.314 41.36l74.223 208.302 187.521-54.227zM251.726-32.155h688.166l-598.38 173.037-89.785-173.037zM1023.967 27.651l-54.848 153.927-167.878 41.319-27.939-126.803 250.666-68.445zM776.635 433.689h-192.453l-14.396-144.598c-0.145-1.458-0.362-2.909-0.65-4.347-5.53-27.563-29.022-46.813-57.134-46.813s-51.607 19.251-57.134 46.814c-0.289 1.437-0.506 2.888-0.65 4.346l-14.396 144.598h-254.659c-17.451 0-34.822-9.047-38.878-20.433l-47.397-133.012 586.75-160.213 90.997 313.657zM886.565 413.256c-4.058 11.385-21.426 20.433-38.879 20.433l-34.119-154.853 131.913-30.915-58.914 165.337zM683.431 608.374v34.426h-40.734l-40.012 218.15h8.743c18.559 0 33.603 15.044 33.603 33.603s-15.044 33.603-33.603 33.603h-198.848c-18.559 0-33.603-15.044-33.603-33.603s15.044-33.603 33.603-33.603h8.744l-40.014-218.15h-40.734v-34.425c0-18.105 14.675-32.78 32.78-32.78h277.298c18.103 0 32.78 14.675 32.78 32.78zM512.001 282.475c5.993 0 11.986 3.677 13.461 11.030l25.194 253.045h-77.308l25.194-253.045c1.475-7.354 7.468-11.030 13.459-11.030z" />
<glyph unicode="&#xe92a;" glyph-name="graphing" d="M723.813 101.4h-62.104c0.024 0.564 0.052 1.126 0.052 1.7v78.353c-99.845-0.165-199.673 0.168-299.52 0.418v-78.772c0-0.574 0.029-1.136 0.052-1.7h-62.097c-18.153 0-32.768-12.187-32.768-27.319s14.615-27.319 32.768-27.319h423.617c18.153 0 32.768 12.186 32.768 27.319s-14.615 27.319-32.768 27.319zM956.416 849.224h-888.832c-37.158 0-67.584-30.415-67.584-67.561v-520.011c0-37.145 30.426-67.56 67.584-67.56h888.832c37.159 0 67.584 30.415 67.584 67.56v520.011c0 37.146-30.425 67.561-67.584 67.561zM991.232 261.653c0-19.565-15.244-34.804-34.816-34.804h-888.832c-19.571 0-34.816 15.239-34.816 34.804v520.010c0 19.565 15.244 34.804 34.816 34.804h888.832c19.572 0 34.816-15.239 34.816-34.804v-520.011zM407.734 540.65h-73.728c-8.578-0.001-16.382-7.803-16.383-16.379v-226.798c0.001-8.575 7.805-16.376 16.383-16.377h73.728c8.578 0.001 16.383 7.803 16.383 16.377v226.798c0 8.576-7.805 16.377-16.383 16.379zM547.655 506.405h-73.727c-8.578-0.001-16.383-7.803-16.385-16.379v-192.553c0.001-8.575 7.806-16.376 16.385-16.377h73.727c8.578 0.001 16.384 7.803 16.385 16.377v192.553c-0.001 8.576-7.806 16.377-16.385 16.379zM687.577 579.361h-73.728c-8.578-0.001-16.384-7.803-16.385-16.377v-265.511c0.001-8.575 7.806-16.376 16.385-16.377h73.728c8.577 0.001 16.382 7.803 16.383 16.377v265.511c-0.001 8.575-7.806 16.376-16.383 16.377zM267.814 454.952h-73.728c-8.579-0.001-16.383-7.803-16.384-16.379v-141.1c0.001-8.576 7.805-16.377 16.384-16.379h73.728c8.578 0.001 16.382 7.803 16.384 16.379v141.1c-0.001 8.576-7.805 16.377-16.384 16.379zM829.915 611.688h-73.728c-8.578-0.001-16.383-7.803-16.383-16.379v-297.836c0-8.575 7.805-16.376 16.383-16.377h73.728c8.578 0.001 16.382 7.803 16.383 16.377v297.836c-0.001 8.576-7.805 16.377-16.383 16.379zM251.144 527.357l0.074 0.043c17.18 9.983 24.511 30.396 18.651 48.558l70.311 42.066c12.903-13.954 34.182-17.628 51.299-7.681 0.025 0.014 0.049 0.029 0.075 0.043 7.658 4.45 13.35 10.976 16.8 18.448l61.113-14.719c-0.044-7.16 1.757-14.425 5.617-21.063 11.518-19.807 36.917-26.531 56.731-15.017l0.075 0.043c16.174 9.397 23.621 28.040 19.55 45.346l68.328 36.632c12.768-14.953 34.776-19.132 52.383-8.902 0.024 0.014 0.049 0.029 0.075 0.043 13.371 7.77 20.77 21.86 20.636 36.289l61.779 17.446c0.71-1.72 1.533-3.416 2.495-5.069 11.517-19.807 36.916-26.531 56.731-15.018l0.073 0.043c19.815 11.513 26.541 36.904 15.024 56.711s-36.917 26.531-56.731 15.017c-0.025-0.014-0.049-0.029-0.075-0.043-12.369-7.187-19.636-19.783-20.551-33.052l-63.163-17.837c-0.377 0.747-0.77 1.49-1.196 2.223-11.518 19.807-36.917 26.531-56.731 15.018l-0.074-0.043c-16.454-9.561-23.87-28.692-19.32-46.248l-67.977-36.416c-12.673 15.514-35.089 19.974-52.963 9.588-0.025-0.015-0.050-0.029-0.074-0.043-7.311-4.248-12.834-10.389-16.322-17.438l-61.598 14.836c-0.143 6.793-1.954 13.645-5.611 19.935-11.517 19.807-36.916 26.531-56.731 15.018-0.024-0.015-0.049-0.029-0.074-0.043-16.936-9.841-24.298-29.82-18.89-47.786l-70.622-42.253c-12.951 13.469-33.872 16.9-50.748 7.094l-0.074-0.043c-19.814-11.513-26.54-36.904-15.024-56.711 11.518-19.807 36.917-26.53 56.731-15.017z" />
<glyph unicode="&#xe92b;" glyph-name="pipeline" d="M829.693 706.385h-635.386c-7.931 0-13.015-8.436-9.309-15.448l32.86-62.179h588.278l32.866 62.179c3.705 7.012-1.378 15.448-9.309 15.448zM276.688 517.448h470.619l41.032 77.627h-552.674l41.024-77.627zM335.517 406.136h352.961l41.032 77.627h-435.015l41.024-77.627zM394.346 294.826h235.301l41.032 77.628h-317.356l41.024-77.628zM450.211 189.124c1.824-3.451 5.406-5.609 9.309-5.609h104.955c3.902 0 7.485 2.159 9.309 5.609l38.067 72.019h-199.698l38.060-72.018zM271.313 758.22c3.007-3.825 8.801-3.825 11.808 0l71.799 91.331c3.873 4.927 0.364 12.151-5.904 12.151h-40.57v90.757c0.001 4.147-3.362 7.51-7.51 7.51h-47.438c-4.148 0-7.51-3.362-7.51-7.51v-90.757h-40.57c-6.267 0-9.777-7.224-5.904-12.151l71.799-91.331zM506.097 758.22c3.006-3.825 8.801-3.825 11.808 0l71.799 91.331c3.873 4.927 0.364 12.151-5.904 12.151h-40.57v90.757c0 4.147-3.362 7.51-7.51 7.51h-47.438c-4.148 0-7.51-3.362-7.51-7.51v-90.757h-40.57c-6.267 0-9.777-7.224-5.904-12.151l71.799-91.331zM740.882 758.22c3.007-3.825 8.801-3.825 11.808 0l71.799 91.331c3.873 4.927 0.364 12.151-5.904 12.151h-40.57v90.757c-0.001 4.147-3.362 7.51-7.51 7.51h-47.438c-4.148 0-7.51-3.362-7.51-7.51v-90.757h-40.57c-6.267 0-9.777-7.224-5.904-12.151l71.799-91.331zM579.049 40.924h-35.82v88.449c0 5.423-4.396 9.818-9.818 9.818h-42.823c-5.422 0-9.818-4.396-9.818-9.818v-88.449h-35.82c-8.194 0-12.782-9.444-7.718-15.885l67.048-85.288c3.931-5 11.506-5 15.437 0l67.048 85.288c5.064 6.441 0.475 15.885-7.718 15.885z" />
<glyph unicode="&#xe92c;" glyph-name="report" d="M98.459 960v-1024h827.081v1024h-827.081zM870.583-9.039h-717.165v914.077h717.165v-914.077zM277.912 331.568h246.591v-54.335h-246.591v54.335zM277.912 228.804h439.941v-54.333h-439.941v54.333zM277.912 126.041h439.941v-54.333h-439.941v54.333zM318.701 502.985c22.526 0 40.786 18.26 40.786 40.788 0 3.43-0.469 6.745-1.266 9.931l75.527 70.767c3.941-1.268 8.143-1.969 12.506-1.969 4.434 0 8.69 0.727 12.687 2.034l55.859-51.857c-0.773-3.128-1.222-6.385-1.222-9.75 0-22.526 18.26-40.788 40.786-40.788s40.789 18.261 40.789 40.788c0 3.791-0.561 7.446-1.526 10.935l116.623 114.937c3.657-1.075 7.516-1.673 11.522-1.673 22.526 0 40.786 18.26 40.786 40.786s-18.26 40.788-40.786 40.788-40.789-18.261-40.789-40.788c0-3.791 0.561-7.446 1.526-10.935l-116.623-114.937c-3.654 1.075-7.518 1.674-11.522 1.674-4.434 0-8.687-0.729-12.686-2.034l-55.861 51.857c0.773 3.128 1.222 6.385 1.222 9.752 0 22.526-18.258 40.786-40.786 40.786s-40.786-18.261-40.786-40.786c0-3.43 0.469-6.745 1.266-9.931l-75.529-70.767c-3.939 1.268-8.143 1.968-12.505 1.968-22.528 0-40.789-18.258-40.789-40.786s18.261-40.788 40.789-40.788z" />
<glyph unicode="&#xe92d;" glyph-name="email" d="M983.455 616.538l0.027 0.047-101.807 76.89v150.333c0 26.283-21.382 47.663-47.663 47.663h-214.501l-77.437 58.483c-8.851 6.674-19.463 10.015-30.072 10.015s-21.218-3.336-30.074-10.015l-77.445-58.483h-214.494c-26.281 0-47.661-21.38-47.661-47.663v-150.306l-101.854-76.98c-1.704-1.321-3.361-2.716-4.909-4.264-9.63-9.638-14.934-22.447-14.934-36.070v-589.162c0-28.134 22.889-51.024 51.024-51.024h881.765c27.543 0 49.951 22.408 49.951 49.951v590.235c0 16.42-7.83 31.012-19.916 40.353zM881.675 657.737l73.216-55.208-73.216-55.208v110.414zM499.304 926.91c7.475 5.64 17.915 5.638 25.394 0.002l47.002-35.442h-119.398l47 35.44zM165.899 529.549v314.258c0 13.285 10.809 24.092 24.090 24.092h644.022c13.283 0 24.090-10.807 24.090-24.092v-314.26l-333.403-251.4c-3.74-2.818-8.221-4.229-12.7-4.229-1.12 0-2.241 0.088-3.348 0.264-2.216 0.352-4.387 1.057-6.418 2.116-1.016 0.528-1.997 1.145-2.931 1.851l-333.401 251.398zM97.459 623.905l44.869 33.832v-110.414l-73.216 55.206 28.347 21.376zM49.859-16.893c-0.229 1.274-0.369 2.578-0.369 3.916v589.164c0 1.573 0.174 3.117 0.492 4.62l396.271-298.803-396.394-298.896zM73.597-35.14l396.625 299.070 11.704-8.825c8.854-6.679 19.461-10.015 30.074-10.015s21.22 3.338 30.072 10.015l11.706 8.827 396.625-299.072h-876.807zM974.509-14.050c0-1.004-0.094-1.982-0.231-2.949l-396.535 299.002 396.273 298.803c0.317-1.491 0.494-3.037 0.494-4.622v-590.233zM597.851 460.483c19.75 7.336 36.793 17.298 51.118 29.89 14.318 12.593 24.432 24.95 30.318 37.080h-31.36c-10.166-14.555-25.468-26.914-45.917-37.080-20.442-10.164-45.803-15.249-76.065-15.249-28.302 0-54.088 4.882-77.365 14.643-23.277 9.763-41.063 24.864-53.363 45.309-12.304 20.446-18.454 44.817-18.454 73.12 0 27.031 6.15 52.353 18.454 75.981 12.3 23.621 29.625 41.758 51.978 54.405 22.351 12.648 47.045 18.974 74.070 18.974 23.68 0 45.311-5.024 64.893-15.075s34.307-23.451 44.183-40.199 14.817-34.77 14.817-54.059c0-16.52-3.844-32.548-11.526-48.081-7.68-15.536-18.109-27.926-31.276-37.166-9.937-7.049-17.964-10.57-24.079-10.57-3.353 0-6.216 1.126-8.579 3.379-2.372 2.253-3.553 4.938-3.553 8.057 0 1.735 1.735 10.684 5.196 26.859l24.954 116.263h-31.016l-5.894-26.856c-6.584 10.744-14.442 18.74-23.565 23.997-9.124 5.255-18.714 7.885-28.759 7.885-13.171 0-26.746-4.622-40.717-13.863-13.982-9.245-25.675-23.076-35.089-41.5-9.415-18.425-14.119-36.82-14.119-55.185 0-14.901 3.031-28.591 9.097-41.065 6.062-12.476 13.947-21.718 23.649-27.723 9.703-6.009 19.693-9.011 29.976-9.011 9.357 0 18.683 2.626 27.981 7.885 9.3 5.255 17.702 12.216 25.214 20.878 0.69-7.047 1.788-12.016 3.291-14.901 2.31-4.504 5.917-7.971 10.828-10.396 4.911-2.427 11.348-3.639 19.32-3.639 24.954 0 47.933 11.665 68.958 34.999 23.565 25.99 35.352 55.734 35.352 89.235 0 23.449-5.601 45.166-16.811 65.149-13.167 23.219-31.161 40.691-53.973 52.415-22.812 11.723-48.54 17.587-77.185 17.587-36.969 0-68.418-8.315-94.346-24.95-25.935-16.635-45.948-40.605-60.039-71.907-11.553-25.531-17.325-52.386-17.325-80.569 0-25.296 4.85-48.861 14.553-70.693 7.739-17.21 19.232-32.429 34.483-45.657 15.247-13.226 33.701-23.131 55.357-29.715 21.657-6.586 45.311-9.878 70.955-9.878 27.837 0 51.632 3.67 71.385 11.004zM543.272 601.352c-4.159-11.727-9.501-21.401-16.029-29.023-6.523-7.623-13.367-13.371-20.526-17.239-7.168-3.871-13.982-5.804-20.448-5.804-9.703 0-18.308 4.389-25.816 13.171-7.508 8.776-11.26 21.077-11.26 36.906 0 9.933 1.845 20.848 5.544 32.747 3.695 11.897 8.602 22.005 14.729 30.324 6.119 8.317 12.442 14.35 18.972 18.105 6.523 3.752 13.486 5.63 20.874 5.63 11.203 0 20.708-4.332 28.505-12.995s11.694-20.852 11.694-36.56c0-11.784-2.079-23.539-6.238-35.261z" />
<glyph unicode="&#xe92e;" glyph-name="toll-free" d="M970.616 577.314h-38.247c-52.726 182.434-220.968 315.847-420.386 315.847s-367.657-133.413-420.383-315.847h-38.249c-29.344 0-53.351-24.006-53.351-53.348v-136.717c0-29.346 24.008-53.352 53.351-53.352h57.069c47.28-156.194 183.169-273.892 349.192-294.57 7.861-21.298 28.342-36.487 52.37-36.487 30.822 0 55.807 24.985 55.807 55.805s-24.985 55.807-55.807 55.807c-21.505 0-40.165-12.169-49.483-29.991-142.256 18.787-259.32 117.432-304.674 249.434-13.112 38.162-20.244 79.1-20.244 121.71 0 206.777 167.626 374.401 374.402 374.401s374.403-167.624 374.403-374.401c0-42.611-7.134-83.548-20.246-121.71h104.476c29.343 0 53.351 24.006 53.351 53.352v136.717c0 29.342-24.008 53.348-53.351 53.348zM511.983 766.306c-171.595 0-310.701-139.105-310.701-310.7v-0.002c0-171.595 139.106-310.701 310.701-310.701 38.012 0 74.42 6.833 108.083 19.329 1.467 0.548 2.929 1.1 4.391 1.669l2.951 1.165c1.39 0.559 2.776 1.124 4.159 1.7l2.748 1.163c1.322 0.567 2.641 1.143 3.953 1.728 1.076 0.478 2.147 0.966 3.218 1.455 1.238 0.572 2.477 1.147 3.707 1.732l3.134 1.513c1.135 0.554 2.26 1.115 3.386 1.682 1.142 0.576 2.278 1.156 3.41 1.745 1.076 0.561 2.15 1.128 3.219 1.7 1.19 0.637 2.374 1.28 3.554 1.932l2.963 1.658c1.241 0.701 2.475 1.412 3.703 2.131 0.862 0.502 1.716 1.009 2.572 1.52l0.383 0.228 146.332-39.212-39.212 146.334 0.271 0.459 1.392 2.351c0.856 1.46 1.696 2.928 2.526 4.402l1.152 2.055c0.736 1.325 1.462 2.661 2.177 4.001l1.423 2.698c0.691 1.325 1.375 2.655 2.046 3.988 0.509 1.009 1.012 2.016 1.51 3.033 0.603 1.231 1.199 2.471 1.786 3.711 0.524 1.109 1.045 2.219 1.559 3.337 0.492 1.072 0.978 2.148 1.459 3.226 0.556 1.25 1.099 2.503 1.644 3.759 0.47 1.091 0.933 2.187 1.391 3.285 0.508 1.223 1.008 2.451 1.503 3.683 0.428 1.072 0.853 2.146 1.269 3.224 0.535 1.37 1.057 2.747 1.573 4.131l0.966 2.634c0.563 1.561 1.115 3.129 1.656 4.703l0.749 2.198c0.563 1.682 1.106 3.368 1.644 5.066l0.682 2.184c0.552 1.793 1.084 3.592 1.607 5.4l0.495 1.739c0.532 1.897 1.049 3.802 1.547 5.711l0.446 1.739c0.496 1.938 0.97 3.888 1.426 5.841l0.351 1.518c0.464 2.026 0.907 4.062 1.332 6.104l0.307 1.507c0.429 2.124 0.838 4.257 1.224 6.396l0.171 0.95c0.402 2.278 0.784 4.566 1.136 6.866l0.111 0.74c0.35 2.315 0.677 4.64 0.977 6.972l0.101 0.822c0.29 2.317 0.559 4.645 0.8 6.977l0.086 0.857c0.239 2.388 0.455 4.785 0.636 7.19l0.034 0.449c0.183 2.486 0.343 4.978 0.473 7.483l0.019 0.401c0.124 2.516 0.226 5.040 0.29 7.567l0.005 0.158 0.002 0.106c0.067 2.63 0.1 5.267 0.1 7.912v0.002c0 171.595-139.107 310.7-310.703 310.7zM771.292 455.597c0-1.987-0.026-3.967-0.075-5.942l-0.052-1.846c-0.049-1.512-0.104-3.018-0.173-4.525l-0.067-1.509c-0.104-1.945-0.224-3.886-0.368-5.822l-0.119-1.414c-0.124-1.512-0.257-3.023-0.403-4.53l-0.193-1.877c-0.156-1.49-0.327-2.975-0.509-4.458l-0.178-1.485c-0.24-1.855-0.496-3.704-0.774-5.545l-0.287-1.793c-0.216-1.37-0.441-2.736-0.68-4.098l-0.331-1.875c-0.282-1.544-0.576-3.084-0.883-4.619l-0.222-1.119c-0.372-1.808-0.764-3.612-1.175-5.406l-0.459-1.953c-0.288-1.223-0.585-2.442-0.892-3.657l-0.53-2.087c-0.45-1.733-0.916-3.456-1.4-5.175l-0.399-1.364c-0.396-1.369-0.801-2.736-1.219-4.097l-0.644-2.059c-0.376-1.191-0.762-2.375-1.156-3.557l-0.633-1.901c-0.566-1.659-1.143-3.311-1.743-4.952l-0.749-2.005c-0.403-1.079-0.812-2.152-1.225-3.224l-0.886-2.245c-0.424-1.061-0.859-2.12-1.294-3.176l-0.997-2.384c-0.602-1.407-1.214-2.806-1.838-4.198l-1.106-2.422-1.234-2.641-1.164-2.425c-0.459-0.944-0.928-1.882-1.402-2.817-0.636-1.264-1.28-2.529-1.938-3.784-0.447-0.851-0.893-1.708-1.349-2.557-0.48-0.892-0.97-1.782-1.459-2.669l-1.098-1.964c-0.524-0.931-1.048-1.858-1.584-2.783l-0.858-1.452c-1.068-1.804-2.146-3.599-3.252-5.374l-0.977-1.562c-0.624-0.987-1.256-1.972-1.895-2.948l-0.877-1.332c-1.996-3.025-4.053-6.004-6.17-8.94l21.534-80.359-80.368 21.533c-13.571-9.788-28.124-18.297-43.486-25.351v-0.017c-32.896-15.108-69.504-23.541-108.077-23.541-143.211 0-259.307 116.095-259.307 259.306v0.002c0 143.21 116.095 259.306 259.307 259.306s259.308-116.095 259.308-259.306v-0.008zM511.983 509.448c-29.737 0-53.846-24.109-53.846-53.848s24.108-53.846 53.846-53.846 53.848 24.108 53.848 53.846-24.109 53.848-53.848 53.848zM369.449 509.448c-29.741 0-53.848-24.109-53.848-53.846s24.107-53.848 53.848-53.848 53.844 24.108 53.844 53.848-24.108 53.846-53.844 53.846zM654.524 509.448c-29.74 0-53.848-24.109-53.848-53.846s24.108-53.848 53.848-53.848 53.845 24.108 53.845 53.848-24.108 53.846-53.845 53.846z" />
<glyph unicode="&#xe947;" glyph-name="location" d="M277.805 418.541l245.341-365.515 18.045 26.876 227.167 338.639c18.64 27.581 33.909 59.451 44.151 93.499l0.643 2.487c9.913 31.802 15.64 68.369 15.678 106.27v0.019c0.008 0.892 0.013 1.946 0.013 3.002 0 90.554-33.642 173.251-89.11 236.273l0.342-0.397c-53.002 60.923-130.385 99.452-216.786 100.273l-0.143 0.001c-86.543-0.822-163.926-39.35-216.629-99.922l-0.3-0.352c-55.125-62.626-88.768-145.322-88.768-235.876 0-1.055 0.005-2.11 0.014-3.163l-0.001 0.161c0-0.171 0-0.374 0-0.577 0-37.756 5.612-74.199 16.048-108.544l-0.69 2.641c11.031-36.47 26.354-68.263 45.786-97.054l-0.801 1.26zM407.834 769.531c29.521 29.54 70.315 47.812 115.375 47.812 90.085 0 163.112-73.027 163.112-163.112s-73.027-163.112-163.112-163.112c-90.085 0-163.112 73.027-163.112 163.112 0 0.041 0 0.082 0 0.123v-0.006c0 0.036 0 0.079 0 0.122 0 44.949 18.245 85.636 47.734 115.059l0.003 0.003zM746.857 150.676c-32.897 10.219-71.938 18.448-112.063 23.125l-3.121 0.296-28.028-41.722c47.985-4.032 92.229-12.578 134.658-25.318l-4.628 1.194c48.697-15.166 78.837-32.891 78.837-49.657s-30.14-34.491-78.837-49.657c-62.624-18.024-134.554-28.39-208.905-28.39-4.53 0-9.053 0.038-13.565 0.115l0.678-0.009c-3.858-0.069-8.409-0.108-12.969-0.108-74.323 0-146.225 10.367-214.339 29.733l5.515-1.341c-48.569 15.166-78.453 32.891-78.453 49.657s30.14 34.491 78.837 49.657c44.43 13.248 96.039 22.384 149.265 25.508l1.881 0.088-28.412 42.234c-50.227-4.457-96.401-13.512-140.709-26.871l4.92 1.275c-68.406-20.989-110.576-53.304-110.576-91.891s42.17-70.902 110.32-92.083c66.689-19.355 143.294-30.488 222.5-30.488 4.341 0 8.675 0.033 13 0.1l-0.654-0.008c3.671-0.059 8.005-0.092 12.346-0.092 79.206 0 155.81 11.132 228.336 31.919l-5.836-1.431c68.15 21.181 110.32 53.496 110.32 92.083s-42.17 70.902-110.32 92.083z" />
<glyph unicode="&#xea1c;" glyph-name="play" d="M85.349 960l853.333-512-853.333-512z" />
</font>
</defs>
</svg>
