<?xml version="1.0" encoding="utf-8"?>
<!-- Generator: Adobe Illustrator 21.1.0, SVG Export Plug-In . SVG Version: 6.00 Build 0)  -->
<svg version="1.1" id="Layer_1" xmlns="http://www.w3.org/2000/svg" xmlns:xlink="http://www.w3.org/1999/xlink" x="0px" y="0px"
	 width="180px" height="130px" viewBox="0 0 180 130" style="enable-background:new 0 0 180 130;" xml:space="preserve">
<style type="text/css">
	.st0{fill:#FF6600;}
	.st1{fill:#FF6600;stroke:#F16A22;stroke-miterlimit:10;}
	.st2{clip-path:url(#SVGID_2_);}
	.st3{clip-path:url(#SVGID_4_);fill:url(#SVGID_5_);}
</style>
<g id="Group_4403" transform="translate(-2767.44 1261.536)">
	<path id="Path_1186" class="st0" d="M2770.5-1134.6h15.9v-68.5c0,0-0.3-12-15.9-13.3V-1134.6z"/>
	<path id="Path_1187" class="st0" d="M2847-1215.4h-44.5c0,0-14,0.3-10.1,26c4.9-5.8,12-9.4,19.8-9.7h34.7V-1215.4z"/>
	<path id="Path_1188" class="st0" d="M2847-1194.3h-34.4c0,0-17.8,1-19.8,15.6v44.1h16.2v-34.1c0,0,0.3-8.8,7.1-8.8h30.8
		L2847-1194.3L2847-1194.3z"/>
	<path id="Path_1189" class="st0" d="M2828.9-1170h18.2v22.4c0.6,6.5-3.9,12-10.4,12.7c0,0,0,0-0.3,0h-21.1v-15.6h12.7
		c0,0,13.3,0,12.7-7.1v-5.2h-12v-7.1L2828.9-1170L2828.9-1170z"/>
	<path class="st1" d="M2854.7-1215.4v2.4h3.9v11.3h2.5v-11.3h3.9v-2.4H2854.7z M2873.1-1215.4v5.3h-5.1v-5.3h-2.5v13.7h2.5v-6h5.1v6
		h2.5v-13.7H2873.1z M2886.7-1201.7v-2.4h-7v-3.4h6.3v-2.4h-6.3v-3h6.8v-2.4h-9.3v13.7H2886.7z M2858.3-1193.1h-2.5v13.7h2.5
		V-1193.1z M2867.8-1183.9l-5.1-9.1h-2.6v13.7h2.4v-9.2l5.2,9.2h2.5v-13.7h-2.4V-1183.9z M2870.7-1193.1v2.4h3.9v11.3h2.5v-11.3h3.9
		v-2.4H2870.7z M2891.1-1179.3v-2.4h-7v-3.4h6.3v-2.4h-6.3v-3h6.8v-2.4h-9.3v13.7H2891.1z M2899.5-1184.5c0.1,0.1,0.2,0.3,0.3,0.5
		l0.2,2.7l0.3,1.9h2.7v-1l-0.2-0.1c-0.1-0.1-0.2-0.2-0.3-0.3c-0.1-0.3-0.2-2.4-0.2-3c0-1.1-0.3-1.9-1-2.4c0.9-0.8,1.3-1.9,1.2-3
		c0.2-2.5-2-4-4.3-3.9h-5.8v13.7h2.5v-5.5h3.3C2898.7-1184.9,2899.1-1184.8,2899.5-1184.5 M2899.6-1190.3c0.5,0.7,0.5,1.9,0,2.6
		c-0.1,0.2-0.3,0.3-0.5,0.3c-1.2,0.1-2.8,0.1-4.1,0.1v-3.5h3.5C2898.9-1190.7,2899.3-1190.6,2899.6-1190.3 M2906.5-1179.3v-5.8h5.7
		v-2.4h-5.7v-3h6.4v-2.4h-8.9v13.7H2906.5z M2915.4-1183.1h4l1.1,3.7h2.6l-4.5-13.7h-2.4l-4.6,13.7h2.6L2915.4-1183.1z
		 M2917.4-1189.3l1.1,3.8h-2.4L2917.4-1189.3z M2928.9-1193.4c-3.9-0.1-6,3.7-5.8,7.1c-0.1,3.6,1.8,7.3,5.6,7.3
		c3.6,0,5.2-2.8,5.5-5.9h-2.4c-0.1,0.9-0.3,1.6-0.8,2.4c-0.5,0.8-1.2,1.1-2.1,1.1c-1,0.1-2-0.4-2.5-1.2c-1-1.8-1.1-4.8-0.1-6.7
		c0.6-1.1,1.5-1.5,2.7-1.6c1.7-0.1,2.6,1.1,2.8,2.7h2.4C2933.9-1191.2,2932-1193.5,2928.9-1193.4 M2944.7-1179.3v-2.4h-7v-3.4h6.3
		v-2.4h-6.3v-3h6.8v-2.4h-9.3v13.7H2944.7z M2858.3-1157v-5.8h5.7v-2.4h-5.7v-3h6.4v-2.4h-8.9v13.7H2858.3z M2868.2-1170.7h-2.5
		v13.7h2.5V-1170.7z M2877.6-1161.6l-5.1-9.1h-2.6v13.7h2.4v-9.2l5.2,9.2h2.5v-13.7h-2.4V-1161.6z M2884.1-1160.7h4l1.1,3.7h2.6
		l-4.5-13.7h-2.4l-4.6,13.7h2.6L2884.1-1160.7z M2886.1-1166.9l1.1,3.8h-2.4L2886.1-1166.9z M2899.9-1161.6l-5.1-9.1h-2.6v13.7h2.4
		v-9.2l5.2,9.2h2.5v-13.7h-2.4V-1161.6z M2909.2-1171.1c-3.9-0.1-6,3.7-5.8,7.1c-0.1,3.6,1.8,7.3,5.6,7.3c3.6,0.1,5.2-2.8,5.5-5.9
		h-2.4c-0.1,0.9-0.3,1.6-0.8,2.4c-0.5,0.8-1.2,1.1-2.1,1.1c-1,0.1-2-0.4-2.5-1.2c-1-1.8-1.1-4.8-0.1-6.7c0.6-1.1,1.5-1.5,2.7-1.6
		c1.7-0.1,2.6,1.1,2.8,2.7h2.4C2914.2-1168.9,2912.3-1171.2,2909.2-1171.1 M2918.2-1170.7h-2.5v13.7h2.5V-1170.7z M2922.6-1160.7h4
		l1.1,3.7h2.7l-4.5-13.7h-2.4l-4.6,13.7h2.6L2922.6-1160.7z M2924.6-1166.9l1.1,3.8h-2.4L2924.6-1166.9z M2933.1-1159.4v-11.3h-2.5
		v13.7h8.3v-2.4H2933.1z M2864.3-1140c0,0.4-0.1,0.8-0.2,1.2c-0.4,1.5-1.6,2-3,2.1c-1,0.1-1.9-0.4-2.5-1.2c-1.1-1.9-1.2-4.8-0.2-6.8
		c0.5-1.1,1.5-1.6,2.7-1.6c1.7-0.1,2.8,1.1,3,2.7h2.4l-0.1-0.5c-0.4-3-3.1-5-6.1-4.6c-1.3,0.2-2.6,0.9-3.4,1.9
		c-1.1,1.4-1.8,3.4-1.7,5.2c-0.2,3.4,1.9,7.5,5.8,7.3c1.3,0,2.6-0.5,3.6-1.5l0.2,1.1h1.8v-7.8h-6v2.4H2864.3z M2875.3-1139.8
		c0.1,0.1,0.2,0.3,0.3,0.5l0.2,2.7l0.3,1.9h2.7v-1l-0.2-0.1c-0.1-0.1-0.2-0.2-0.3-0.3c-0.1-0.3-0.2-2.4-0.2-3c0-1.1-0.3-1.9-1-2.4
		c0.9-0.8,1.3-1.9,1.2-3c0.2-2.5-2-4-4.3-3.9h-5.8v13.7h2.5v-5.5h3.3C2874.6-1140.2,2875-1140.1,2875.3-1139.8 M2875.5-1145.6
		c0.5,0.7,0.5,1.9,0,2.6c-0.1,0.2-0.3,0.3-0.5,0.3c-1.2,0.2-2.8,0.1-4.1,0.1v-3.5h3.5C2874.7-1146,2875.1-1145.9,2875.5-1145.6
		 M2885.3-1134.3c1.6,0.1,3.2-0.6,4.2-1.8c1.2-1.5,1.9-3.5,1.8-5.4c0-1.6-0.5-3.7-1.5-5c-2.1-2.7-6.5-3.1-8.8-0.4
		c-1.2,1.4-1.9,3.6-1.8,5.4C2879.1-1138,2881.2-1134.2,2885.3-1134.3 M2885.3-1146.3c1,0,2,0.5,2.6,1.3c1.2,1.9,1.3,4.7,0.2,6.7
		c-0.6,1-1.6,1.5-2.8,1.6c-1,0-2-0.5-2.6-1.3c-1.2-1.9-1.3-4.7-0.2-6.7C2883.1-1145.8,2884.1-1146.3,2885.3-1146.3 M2899.3-1137.7
		c-0.6,0.7-1.2,0.9-2.1,1c-0.7,0-1.4-0.3-1.8-0.8c-0.5-0.7-0.6-1.4-0.6-2.3v-8.5h-2.5v9c-0.1,2.9,2.1,5.2,4.9,5.1
		c3.1,0.1,5.2-2.5,5.1-5.3v-8.8h-2.5v8.6C2899.9-1139,2899.7-1138.4,2899.3-1137.7 M2909.7-1140.1c2.4,0.1,3.9-2.1,3.9-4.2
		c0.2-2.1-1.4-3.9-3.4-4.1c-0.1,0-0.3,0-0.4,0h-5.6v13.7h2.5v-5.4H2909.7z M2910.6-1145.6c0.6,0.6,0.6,2,0.1,2.7
		c-0.2,0.2-0.3,0.3-0.6,0.3c-1.2,0.2-2.4,0.1-3.6,0.1v-3.6h2.7C2909.7-1146,2910.2-1145.9,2910.6-1145.6"/>
</g>
<path class="st0" d="M36.7,9.6L36.3,9c0,0,0,0-0.1,0C29.5,1.3,17.8,0.5,10,7.2C9.7,7.4,9.3,7.8,9,8.1c-3.9,3.8-6,9-6,14.4
	c0,4.9,1.7,9.6,5,13.3c3.5,4.1,8.7,6.5,14.1,6.5c4.9,0,9.6-2,13.1-5.4c3.9-3.8,6-9,6-14.4C41.2,17.8,39.6,13.3,36.7,9.6 M22.6,4.7
	c2.6,2.2,4.9,4.9,6.7,7.9c-1.3,0.5-2.7,0.9-4.1,1.2c-0.9,0.2-1.7,0.3-2.6,0.4V4.7z M29.7,13.4c0.1,0.2,0.2,0.4,0.3,0.6
	c0.9,1.8,1.6,3.7,2,5.7c0.1,0.6,0.2,1.1,0.2,1.7h-9.7v-6.3C24.9,14.8,27.4,14.3,29.7,13.4 M32.3,22.3c0.1,2-0.1,4.1-0.7,6
	c-0.3,1-0.7,2-1.1,2.9c-2.5-1-5.2-1.7-7.9-1.9v-7H32.3z M30,32.1c-1.8,3.4-4.4,6.5-7.2,9l0.3,0.4c-0.2,0-0.4,0-0.5,0V30.2
	c0.9,0.1,1.7,0.2,2.6,0.4C26.8,30.9,28.4,31.4,30,32.1 M23.7,41.4c1.9-1.7,3.7-3.7,5.2-5.8c0.8-1,1.4-2.1,1.9-3.2
	c1.7,0.7,3.4,1.6,4.9,2.6C32.8,38.6,28.5,40.9,23.7,41.4 M31.3,31.6c1.4-3.1,2-6.2,1.9-9.3h7.2c0,0.1,0,0.1,0,0.2
	c0,4.5-1.5,8.6-4,11.9C34.8,33.3,33.1,32.4,31.3,31.6 M33.1,21.4c-0.3-2.9-1.2-5.7-2.6-8.3c1.9-0.8,3.8-1.8,5.5-2.8
	c2.5,3.1,4,7,4.2,11.2H33.1z M30.1,12.3c-1.8-3.2-4.4-6.1-7.5-8.6l-0.1,0.1V3.5c5.3,0.1,9.8,2.5,12.9,6C33.8,10.6,32,11.5,30.1,12.3
	 M8.5,35.1c1.3-1.4,2.9-2.5,4.5-3.3c0.6,1.3,1.4,2.5,2.2,3.8c1.5,2.1,3.3,4.1,5.2,5.8c-4.1-0.4-7.9-2.2-10.9-5.1
	C9.3,35.9,8.9,35.5,8.5,35.1 M13.9,31.4c1.5-0.6,3-1,4.6-1.2c1.1-0.1,2.1-0.2,3.2-0.1v11.3c-0.2,0-0.4,0-0.5,0l0.3-0.4
	C18.4,38.3,15.7,35.1,13.9,31.4 M21.7,29.2c-1.1,0-2.2,0-3.3,0.1c-1.7,0.2-3.3,0.6-4.9,1.3c-0.3-0.8-0.6-1.5-0.9-2.3
	c-0.6-2-0.8-4-0.7-6h9.7V29.2z M12.7,31C11,31.9,9.4,33,8,34.4C5.3,31,3.9,26.9,3.9,22.5c0-0.1,0-0.1,0-0.2h7.2
	C10.9,25.2,11.5,28.2,12.7,31 M13.4,13.7c-1.3,2.5-2.1,5.1-2.3,7.7H3.9c0.2-4.3,1.8-8.1,4.3-11.2C9.7,11.7,11.5,12.9,13.4,13.7
	 M12,21.4c0.1-0.6,0.1-1.1,0.2-1.7c0.4-2,1.1-3.9,2-5.7c1.3,0.5,2.7,0.8,4.2,1c1.1,0.1,2.2,0.2,3.3,0.1v6.3H12z M14.7,13.2
	c1.8-3.2,4.2-6.1,7-8.5v9.5C19.2,14.4,16.9,14,14.7,13.2 M21.7,3.7L21.7,3.7c-3.2,2.5-5.9,5.6-7.8,9.2c-1.8-0.8-3.5-1.9-5-3.4
	c3.2-3.6,7.8-5.8,12.9-6V3.7z"/>
<g id="Vector_Smart_Object">
	<g>
		<defs>
			<rect id="SVGID_1_" x="802.3" y="-1445.9" width="1032.3" height="1698.6"/>
		</defs>
		<clipPath id="SVGID_2_">
			<use xlink:href="#SVGID_1_"  style="overflow:visible;"/>
		</clipPath>
		<g class="st2">
			<defs>
				<polygon id="SVGID_3_" points="1830.5,-1446 802.3,-1443.5 806.4,252.6 1831.6,252 1834.6,248.3 				"/>
			</defs>
			<clipPath id="SVGID_4_">
				<use xlink:href="#SVGID_3_"  style="overflow:visible;"/>
			</clipPath>
			
				<linearGradient id="SVGID_5_" gradientUnits="userSpaceOnUse" x1="63.2678" y1="83.8604" x2="63.5947" y2="83.8604" gradientTransform="matrix(-12.4022 -5193.1514 3660.4722 -8.7399 -304863.4688 329545.9062)">
				<stop  offset="0" style="stop-color:#EF5A23"/>
				<stop  offset="0.692" style="stop-color:#F48516"/>
				<stop  offset="1" style="stop-color:#F79910"/>
			</linearGradient>
			<polygon class="st3" points="1838.6,252.6 1834.6,-1448.4 798.3,-1445.9 802.3,255.1 			"/>
		</g>
	</g>
</g>
</svg>
